<?xml version="1.0" encoding="UTF-8"?>
<!DOCTYPE svg PUBLIC "-//W3C//DTD SVG 1.1//EN" "http://www.w3.org/Graphics/SVG/1.1/DTD/svg11.dtd">
<!-- Creator: CorelDRAW 2018 (64-Bit) -->
<svg xmlns="http://www.w3.org/2000/svg" xml:space="preserve" width="158.418mm" height="87.7221mm" version="1.1" style="shape-rendering:geometricPrecision; text-rendering:geometricPrecision; image-rendering:optimizeQuality; fill-rule:evenodd; clip-rule:evenodd"
viewBox="0 0 1166389 645873"
 xmlns:xlink="http://www.w3.org/1999/xlink">
 <defs>
  <style type="text/css">
   <![CDATA[
    .fil1 {fill:#FCCA00}
    .fil0 {fill:#FCCA00;fill-rule:nonzero}
   ]]>
  </style>
 </defs>
 <g id="Слой_x0020_1">
  <metadata id="CorelCorpID_0Corel-Layer"/>
  <path class="fil0" d="M920743 344950c-23551,3201 -41384,-4781 -53492,-23955 -3879,-5679 -6854,-11833 -8925,-18467 -10275,13566 -21025,23626 -32254,30179 -7130,4136 -15144,6811 -24029,8022 -15554,2114 -28304,-1811 -38259,-11770 -7311,-7154 -11811,-16950 -13503,-29396 -1632,-11997 -596,-24353 3100,-37076 2796,-9432 6999,-21774 12622,-37022 941,-2754 14233,-28669 2894,-38258 -22618,-19012 -68484,20482 -70413,24937 -20931,48338 -39067,118326 -46446,138802l-2817 9209c-1738,3854 -3348,7017 -4820,9480 -3274,5877 -7801,9208 -13578,9993 -4000,544 -7734,-304 -11208,-2548 -3977,-2627 -6301,-6383 -6965,-11273 -317,-2341 -147,-4924 519,-7749 -2855,3233 -5697,6181 -8518,8837 -9984,9295 -18904,18014 -30516,25197 -4083,3270 -6861,6137 -8338,8601 -1531,2020 -2888,5370 -4060,10056l-1183 6272 -519 6180 -3035 12631 -3123 11968c-5747,24317 -18138,56323 -37177,96028 -18336,38247 -40714,65053 -67138,80416 -9678,5387 -19403,8747 -29177,10076 -7111,966 -14125,1016 -21026,144 -17172,-3098 -29862,-11554 -38079,-25373 -2504,-5090 -4236,-11188 -5202,-18301 -1270,-9330 -470,-20073 2402,-32235 2084,-7975 5750,-15943 11008,-23899l7308 -11177 8724 -10694c15681,-21140 39433,-44511 71256,-70110 7608,-6240 74184,-58225 77401,-64840 2576,-6016 5526,-29248 4436,-37264 -361,-2661 -1434,-3878 -3212,-3636 -1331,182 -2575,1032 -3728,2545l-1634 2939 -1730 2272 -7213 11842c-1860,2966 -4324,6472 -7397,10510l-8063 10599c-15982,18922 -33087,29619 -51305,32096 -13332,1812 -24632,-1403 -33901,-9644 -11729,-9717 -18954,-24580 -21673,-44575 -2056,-15108 -1111,-33114 2835,-54018 3561,-20397 8154,-38221 13773,-53468 5419,-13408 12180,-28586 20289,-45527 2445,-5313 5454,-9795 9030,-13449 4344,-4664 8740,-7300 13184,-7903 10662,-1451 16783,3600 18355,15155 664,4886 -582,10714 -3735,17481l-4243 8723 -2214 3695 -2215 3694c-5981,12583 -11802,29670 -17467,51257 -5520,19307 -8971,37202 -10350,53684l-34 4754 -606 5514c-285,4566 -190,8628 297,12179 1810,13332 7388,19362 16718,18094 2668,-363 5847,-1929 9547,-4692l4301 -3304 4216 -3963c5230,-4785 10757,-10743 16577,-17871 8949,-10723 18692,-25625 29221,-44709 7581,-14156 14694,-30058 21345,-47707 3356,-8605 6328,-16701 8917,-24297l1183 -6272 1939 -5693c1560,-5189 3044,-9242 4460,-12148 3718,-5937 8687,-9329 14912,-10175 8888,-1207 15016,2258 18386,10401l1570 6573c423,3112 433,6508 26,10182l-1307 10360 -3220 26235 -2463 26811 -2553 26150 -392 2087 -398 2090 -609 5515c-726,4626 -939,8049 -638,10270 664,4886 2108,7181 4329,6880 28540,-3885 66655,-104008 73973,-134978 3115,-14061 7224,-34860 24845,-37250 11106,-1506 7933,5209 19580,4625 16805,-842 37853,-28126 72273,-32803 14664,-1990 25831,1915 33503,11736 4964,6566 8019,14069 9172,22514 1752,12888 -314,27652 -6200,44292l-6487 17177 -6399 17840c-4914,13794 -7592,25702 -8039,35720l-34 4756c1332,9777 5996,14118 13991,13028 4444,-602 9890,-3833 16333,-9685 5295,-4340 10052,-9287 14276,-14843 6584,-8137 12871,-18494 18855,-31074l7154 -17269 5135 -11754 474 -1907c6635,-24436 14682,-46803 24142,-67098l3092 -7215 4337 -8053c3273,-5878 6760,-10198 10457,-12966 2928,-1755 5950,-2846 9056,-3268 7559,-1027 13313,1358 17270,7158 1634,2040 2604,4170 2902,6391 545,3999 -407,8657 -2852,13969l-3184 6543 -3271 5875c-5538,12522 -10088,24002 -13644,34444l-973 2847 -879 3515c-1416,2905 -2576,6008 -3484,9300 -2471,8482 -4715,16932 -6738,25356 -5864,23424 -7922,41585 -6171,54472 1995,14662 8768,21209 20324,19637 10662,-1450 20787,-6900 30362,-16350 7597,-7368 14449,-16897 20549,-28592 11177,-20979 20650,-42862 28411,-65640l5159 -16997 5247 -16328 2336 -7785 2246 -8452c2383,-5757 5174,-10210 8366,-13359 3192,-3149 6789,-4996 10788,-5538 7112,-969 12617,1223 16508,6579 1637,2040 2667,4618 3089,7726 420,3112 48,7008 -1126,11695l-1849 6361 -1277 5606c-8596,33302 -11470,60396 -8632,81282 849,6219 2400,10988 4663,14301 2439,4647 6107,6636 10994,5973 38221,-5197 26353,-48980 46797,-58284 1219,-1068 2712,-1724 4488,-1965 11107,-1508 17450,3511 19024,15064 3741,27533 -35680,77815 -68655,82298 -12000,1633 -22734,-753 -32206,-7160 -2016,-1534 -4128,-3737 -6327,-6609 -2587,-2360 -4728,-4788 -6422,-7269 -2321,-3759 -4594,-5488 -6815,-5187 -1332,181 -3183,1566 -5545,4150 -20430,26861 -35863,55114 -73948,60295zm-788773 153139c-4890,667 -9606,-730 -14150,-4183 -4480,-3011 -7056,-6961 -7720,-11850 -1281,-9410 3031,-16520 7584,-24113l3760 -7300c12766,-22558 22995,-43862 30678,-63914l6004 -15753 6097 -15084 880 -3515 879 -3515c970,-2849 1333,-5160 1093,-6939 -183,-1332 -1058,-2797 -2636,-4395l-3391 -4968c-3206,-3639 -5057,-7232 -5539,-10789 -1152,-8441 2511,-14824 10975,-19142 1654,-1130 3312,-2263 4968,-3391l4482 -1970c5921,-3067 9630,-7417 11126,-13053 13082,-40251 21967,-88074 26652,-143475l1001 -7605 156 -8846c40,-6341 -295,-12181 -1024,-17511 -2051,-15108 -7724,-25203 -17017,-30273 -6316,-3213 -13701,-4248 -22145,-3097 -6219,845 -12766,2640 -19635,5384 -5596,2122 -11322,4934 -17180,8449 -21070,11461 -39849,26465 -56337,44999 -17641,20052 -29740,40930 -36289,62640 -786,2518 -1489,4978 -2103,7385 373,3 -8586,-6590 1131,18 23354,15889 -44554,58760 -44271,14366 2111,-21107 8307,-42090 18596,-62952 9906,-20355 22941,-39326 39104,-56912 18648,-19284 39175,-34746 61583,-46394 16482,-8578 33165,-14014 50051,-16314 30666,-4168 53472,3818 68433,23958 8360,11537 13777,26417 16254,44635 1509,11109 2063,23481 1656,37113 -895,10082 -2182,22249 -3865,36508l-2399 17299 -2399 17297c-1923,12482 -3997,23856 -6224,34114 -3783,15449 -5493,24507 -5128,27175 362,2665 1880,3818 4542,3457 2666,-364 5912,-1482 9728,-3362l4393 -2633 1817 -1609 1244 -847c19558,-12615 38277,-28061 56155,-46333 21339,-22818 38897,-45117 52682,-66908 10323,-17243 21168,-40670 32534,-70274 8226,-22939 12813,-43784 17291,-67526 2789,-9432 8410,-14723 16851,-15873 11998,-1632 18904,4220 20718,17551 3139,23100 -8313,60952 -16542,83040 -8389,21509 -18235,42308 -29533,62401 -13662,22676 -28896,43757 -45709,63243 -13740,15445 -29926,31224 -48553,47336l-15877 13021 -4880 4060 -5457 4816c-2871,2199 -4210,3966 -4031,5297 242,1780 2295,3536 6148,5278 23771,11699 42336,23433 55703,35193 17464,15272 31317,35568 41546,60880 2745,6866 4571,13636 5476,20300 2419,17777 -3259,27601 -17034,29475 -9778,1327 -16268,-4803 -19474,-18397 -2846,-10928 -7779,-22255 -14806,-33969 -11787,-20121 -29371,-36285 -52761,-48492l-15356 -8096c-6260,-2769 -11763,-4963 -16509,-6579l-7211 -3094 -7120 -2427c-6139,-1880 -11428,-2519 -15875,-1914 -4884,663 -8834,3239 -11845,7723 -1153,1515 -2213,3692 -3184,6540l-2426 7121 -5155 16995 -6583 16508c-11808,29405 -31029,80089 -49600,104506 -4222,5554 -9223,8722 -14999,9507zm281879 103172c14664,-1996 28067,-9927 40214,-23801 9775,-11286 18073,-23502 24885,-36650l5489 -9569 5487 -9572c4040,-6887 7283,-12986 9733,-18298l9276 -21626c3416,-8162 6287,-15342 8616,-21538l1059 -2185 971 -2846 1846 -6362c2004,-5250 2821,-9208 2460,-11875 -362,-2665 -1653,-3850 -3876,-3546 -2221,302 -5182,1837 -8879,4602l-4305 3302 -1816 1604 -1242 845c-10203,8179 -21116,17811 -32732,28894l-14367 14173 -15697 14357c-14428,13727 -24975,26029 -31643,36889l-3364 5211 -3365 5208c-2566,4421 -4750,8343 -6552,11752 -4179,9170 -5792,17308 -4823,24419 1751,12886 9295,18424 22626,16610z"/>
  <path class="fil1" d="M760804 506831c-8988,15709 -30809,32498 -48339,21076 -4965,-3430 -7954,-8190 -9038,-14120 -1017,-5563 -250,-11671 995,-17134 1267,-5557 3260,-11023 5498,-16255 1719,-4013 10264,-20876 9650,-24245 -332,-1818 -2443,-2985 -4052,-3683 -1203,-597 -2518,-1088 -3816,-1546l-1708 -644 -1459 -426c-1136,-400 -2445,-683 -3648,-464 -1765,322 -2739,2295 -3273,3759 -5685,19579 -9591,32857 -20285,50699 -10727,17896 -24727,34450 -43157,44667 -5124,2997 -10993,4770 -16805,5831 -11147,2038 -21403,-61 -30179,-7343 -7091,-5541 -10835,-13364 -12433,-22103 -2233,-12230 -320,-24706 3548,-36429 3714,-10624 8664,-21179 15451,-30206 6469,-8603 14932,-17595 25107,-21635 1933,-815 3943,-1425 6008,-1802 3274,-600 6581,-599 9860,-41 4869,827 9042,3186 12600,6579 3210,3057 5208,6792 6005,11155 1165,6372 -312,12858 -2843,18721 -987,2289 -2140,4764 -3554,6827 -7696,14145 -27772,11097 -27995,-4656 -110,-7674 6026,-13987 13701,-14096 186,-3 372,-1 557,3 317,-1034 528,-2186 344,-3181 -359,-1970 -1632,-2149 -3444,-1819 -1338,247 -2686,750 -3929,1311l-2013 1333 -1434 898c-4231,3054 -7818,6839 -10896,11042 -6307,8612 -11022,18100 -13831,28458 -1503,4836 -2466,9803 -2824,14855 -244,3516 3,7036 637,10500 1805,9886 8402,12246 17710,10547 12320,-2252 23342,-11363 31741,-20175 6825,-7161 12844,-16805 17774,-25339 7974,-13796 12148,-26185 16546,-41298l694 -3433c390,-1931 304,-4329 -841,-6158l-1584 -3114c-786,-1727 -1362,-3535 -1702,-5401 -1442,-7885 536,-14789 6246,-20404 2372,-2564 5252,-4259 8695,-4888 7215,-1319 11607,2084 12906,9199 482,2643 359,5708 140,8425l-363 3290c40,1072 102,2224 295,3276 315,1725 1802,2769 3270,3442l3170 1373c5800,1960 11626,4319 16987,7444 4689,3056 8138,7207 9158,12793 912,5000 -301,9468 -1996,13999 6696,-118 12920,4684 16035,10601 1101,-2481 2166,-4980 3204,-7489 1551,-5779 3441,-11475 5549,-17073 6558,-17425 16621,-33648 32311,-44207 4105,-2766 8810,-4409 13658,-5295 5451,-997 10733,-312 15543,2582 4795,3105 7556,7645 8581,13239 1433,7838 -810,15894 -4087,22983 -3755,8120 -10388,15631 -16766,21800 -3371,3261 -7019,6492 -10909,9125 -2073,1402 -4295,2582 -6540,3599l-9264 4725 -3019 1200c-1631,903 -3536,2094 -4694,3477 -1020,1475 -854,3640 -548,5311 699,3844 2380,7221 5967,8966 3304,1491 7098,1428 10598,789 11421,-2088 21440,-8768 29817,-16543 3152,-2930 6076,-6090 8734,-9437 2654,-3475 5179,-7090 7663,-10686 6070,-8784 9931,-16952 13073,-27106 3005,-9700 5348,-18919 9237,-28355l1398 -3704 1944 -4041c1278,-2567 2963,-5206 5203,-7047l58 -47 66 -44c1499,-995 3139,-1699 4912,-2024 4052,-739 7545,332 10012,3619 958,1088 1635,2327 1895,3762 474,2598 -190,5316 -1179,7750 -6189,14339 -10607,27872 -13624,43208 -1519,7726 -3223,18274 -1791,26097 902,4943 2947,8907 8554,7884 5410,-990 9893,-4220 13581,-8173 3795,-4072 6744,-8978 9111,-13994 4932,-10459 9066,-21274 12279,-32329l2144 -8418 2186 -8040 954 -3796 926 -4264 35 -96c928,-2572 2221,-5189 4094,-7213 1629,-1759 3611,-2973 5981,-3405 3833,-699 7184,295 9624,3346 1106,1260 1722,2782 2020,4419 370,2030 113,4291 -306,6358l-747 3070 -498 2781c-2546,12126 -4640,26875 -2391,39192 373,2047 1033,4528 2305,6221l52 69 43 77c997,1701 2503,1749 4306,1912 16514,1497 22818,-47066 25725,-59031 -741,-5507 -464,-8078 3549,-12415 1629,-1762 3614,-2972 5981,-3406 3836,-701 7184,295 9624,3346 1105,1260 1721,2780 2019,4416 373,2031 113,4291 -304,6358l-747 3075 -501 2776c-2545,12127 -4641,26880 -2391,39193 373,2047 1036,4530 2305,6219l54 71 44 75c9459,16156 19002,-6660 21212,-15176 1390,-5363 2278,-10912 2916,-16414 1065,-9156 1434,-18375 1650,-27588 54,-2235 -49,-13316 1138,-14923 6573,-8914 18065,-13174 28597,-8987 9638,3829 23087,8583 25211,20240 823,4516 -170,9221 -1773,13482l-248 629c452,38 900,118 1346,240l3123 451c25602,6199 17343,58499 -13584,64143 -6082,1111 -11825,63 -17047,-3342 -4967,-3429 -7960,-8190 -9041,-14122 -1012,-5558 -245,-11671 997,-17131 1261,-5557 3256,-11026 5498,-16257 1684,-3922 10147,-21426 9648,-24234 -593,-2125 -10749,-6524 -12868,-4969 -3253,2390 -5165,12164 -5912,15923 -1909,9569 -3256,19209 -5376,28755 -3608,16244 -10385,38790 -29413,42268 -9935,1816 -17892,-1889 -23907,-9896 -2131,-3123 -2864,-1170 -4574,1304 -11415,16522 -30775,25154 -45086,6103 -261,-382 -815,-1110 -1335,-1148 -2228,-170 -10230,12037 -11693,13947 -6727,8794 -14848,16560 -26152,18627 -11663,2131 -21277,-1294 -28098,-11077 -2094,-2786 -3723,-5812 -4913,-9047 -10454,14037 -23489,25455 -39765,32385 -4574,1949 -9333,3410 -14227,4304 -14391,2630 -27741,148 -36134,-12754 -238,-400 -466,-805 -688,-1216zm-486370 115385c-1055,-892 -2042,-1884 -2908,-3043 -182,-265 -959,-1301 -1253,-1344 -350,139 -1065,955 -1262,1186l-2755 3985 -995 2123 -74 105c-804,1160 -1603,2321 -2425,3511 -5826,8031 -13475,14797 -23503,16628 -9779,1786 -17868,-1109 -23572,-9284 -2890,-3853 -4711,-8226 -5577,-12963 -507,-2765 -671,-5640 -688,-8528l166 -3558 -29 -1796 306 -1517c209,-2379 542,-4759 937,-7170l1459 -7220c2120,-9475 4907,-18838 8585,-27779l1173 -3097 1613 -3356c1081,-2168 2498,-4384 4387,-5935l63 -50 66 -43c1271,-844 2667,-1444 4173,-1718 3455,-632 6454,292 8555,3091 825,939 1407,2006 1631,3246 399,2207 -155,4507 -997,6579l-1202 2782 -1174 2341c-1792,4609 -3449,9265 -4822,14016l-317 1079 -319 1563 -61 146c-498,1149 -867,2354 -1154,3572 -816,3426 -1555,6869 -2244,10321 -1280,6398 -2671,15078 -1486,21562 724,3954 2302,7160 6798,6338 4441,-810 8109,-3468 11132,-6710 3131,-3357 5565,-7414 7514,-11550 4090,-8669 7519,-17633 10181,-26789l1779 -6991 1812 -6671 789 -3144 778 -3556 35 -95c784,-2169 1869,-4371 3447,-6077 1389,-1501 3091,-2532 5110,-2899 3281,-602 6154,255 8236,2861 946,1081 1475,2388 1732,3790 315,1721 102,3623 -256,5381l-615 2542 -417 2307c-2109,10031 -3847,22252 -1984,32439 301,1655 837,3685 1864,5053l55 69 44 78c704,1202 1566,1731 2962,1477 5159,-939 8196,-6113 10205,-10649 -4414,-2590 -6626,-6450 -6702,-11903 -102,-7335 6665,-14332 14033,-14437 29456,-418 7371,50772 -15635,54975 -5024,918 -9858,173 -14301,-2546 -1079,-748 -2045,-1728 -2893,-2729zm847975 -209567c-3060,403 -5663,-574 -7391,-3121 -1402,-1840 -2070,-4124 -2368,-6389 -357,-2699 -285,-5548 -71,-8277l418 -4450 833 -3772 1440 -9171 1800 -8851 3647 -17371 3681 -17023c1219,-5942 2550,-11862 3943,-17800l4574 -17817c2883,-11228 5805,-22777 9429,-33754l1439 -4626 1792 -4287c2079,-4244 5320,-7358 10147,-7995 6118,-811 9994,1867 10566,8095 320,2416 -184,5237 -750,7608l-1762 6933 -5347 16912c-3293,10857 -6450,21728 -9514,32597 -1186,5742 -2576,11421 -4010,17073l-3644 17366c-2810,12438 -5361,24932 -7906,37426l-1824 8932 -1105 4119c-424,1568 -1070,3114 -2137,4505 -1570,1751 -3545,2830 -5881,3138zm-5033 44744c-3687,488 -7114,-496 -10063,-2750 -3148,-2409 -4853,-5731 -5378,-9641 -603,-4532 766,-8731 3426,-12468 2720,-3555 6241,-6250 10770,-6850 3800,-505 7335,373 10437,2749 2999,2506 4814,5722 5324,9598 570,4303 -369,8340 -2752,11970 -2782,4231 -6746,6729 -11764,7392zm-54714 -37996l-767 1774 -3020 7232c-834,1936 -1535,3935 -2042,5983 6,853 165,1676 482,2475l33 85 22 87c498,1888 1413,3714 3331,4675 12486,7458 23957,-22798 8784,-24279 -1341,-130 -2665,3 -3910,421 -1043,375 -2015,906 -2913,1546zm-257644 22867c373,-559 713,-1150 977,-1766l82 -188 127 -160c1300,-1636 2514,-3357 3567,-5163 1205,-2064 4250,-7521 3795,-10016 -71,-389 -204,-952 -611,-1125l-638 -92 -1046 193c-3917,719 -7286,3351 -9973,6206l-4722 4816c-1358,1711 -2664,3461 -3904,5256 -2596,3760 -4768,7824 -6629,11994l-56 129 -469 678 -161 556 -956 2219c-378,949 -954,2610 -766,3650 20,112 84,403 186,410 2074,-379 4148,-1477 5859,-2585l2871 -2156 2616 -2151c3281,-2606 6154,-5979 8603,-9303l667 -967 580 -436zm-73734 39974l-761 1772 -3023 7233c-706,1641 -1319,3603 -1915,5303 -1024,2936 -2207,8653 1090,10711 5526,3443 12874,-6368 14987,-10244 4823,-8855 7229,-21239 -7461,-16321 -1041,375 -2013,906 -2916,1546z"/>
 </g>
</svg>
