<?xml version="1.0" encoding="UTF-8"?>
<!DOCTYPE svg PUBLIC "-//W3C//DTD SVG 1.1//EN" "http://www.w3.org/Graphics/SVG/1.1/DTD/svg11.dtd">
<!-- Creator: CorelDRAW 2018 (64-Bit) -->
<svg xmlns="http://www.w3.org/2000/svg" xml:space="preserve" width="110.192mm" height="100.459mm" version="1.1" style="shape-rendering:geometricPrecision; text-rendering:geometricPrecision; image-rendering:optimizeQuality; fill-rule:evenodd; clip-rule:evenodd"
viewBox="0 0 150519 137224"
 xmlns:xlink="http://www.w3.org/1999/xlink">
 <defs>
  <style type="text/css">
   <![CDATA[
    .fil3 {fill:#5A2A6B}
    .fil0 {fill:#FCCA00}
    .fil4 {fill:#2B2A29;fill-rule:nonzero}
    .fil2 {fill:#5A2A6B;fill-rule:nonzero}
    .fil1 {fill:#F9B505;fill-rule:nonzero}
   ]]>
  </style>
 </defs>
 <g id="Слой_x0020_1">
  <metadata id="CorelCorpID_0Corel-Layer"/>
  <path class="fil0" d="M76111 0c35037,0 63936,26262 68096,60174 243,476 433,998 565,1558 2945,-261 5397,1697 5710,4686 92,797 5,1575 -181,2352l-258 1020 -674 2129c-379,1249 -743,2503 -1098,3759 -144,679 -308,1354 -478,2028l-440 2096c-336,1488 -641,2983 -945,4477l-248 1214 -168 625c-60,225 -133,445 -219,660 253,544 423,1129 504,1742 200,1515 -145,3012 -984,4289 -1003,1526 -2557,2503 -4368,2743 -568,75 -1135,66 -1686,-23 -10466,24514 -34790,41696 -63129,41696 -37893,0 -68612,-30719 -68612,-68612l2 -151c-3905,745 -7532,-1578 -7501,-6413l1 -194 19 -194c318,-3182 1267,-6226 2671,-9092 1420,-2899 3257,-5548 5440,-7924l36 -39 37 -38c1701,-1759 3563,-3331 5584,-4682 10870,-23545 34687,-39886 62322,-39886z"/>
  <path class="fil1" d="M116409 80597c-2871,390 -5045,-583 -6520,-2921 -473,-692 -836,-1442 -1088,-2251 -1252,1654 -2563,2880 -3932,3679 -869,504 -1846,830 -2929,978 -1896,258 -3450,-220 -4665,-1435 -890,-872 -1440,-2066 -1646,-3583 -77,-564 -105,-1135 -85,-1712 -11,-295 -8,-591 8,-889 -16,-296 -18,-594 -8,-893 -40,-1146 114,-2319 463,-3519 340,-1150 852,-2654 1539,-4513 52,-154 422,-903 673,-1780 -81,-146 -187,-277 -321,-390 -2757,-2318 -8349,2496 -8583,3039 -2552,5893 -4763,14425 -5663,16921l-344 1123c-212,470 -407,855 -587,1156 -399,717 -950,1122 -1655,1218 -488,67 -943,-37 -1366,-311 -485,-320 -768,-778 -849,-1374 -28,-203 -25,-422 9,-655l-9 -57c-7,-47 -11,-96 -15,-145 -322,360 -642,690 -960,990 -1217,1133 -2304,2196 -3720,3072 -497,399 -836,748 -1016,1049 -187,246 -352,655 -495,1226l-144 765 -63 753 -369 1540 -381 1459c-700,2964 -2211,6866 -4532,11707 -2235,4663 -4963,7930 -8185,9803 -1180,657 -2365,1067 -3557,1228 -867,118 -1722,124 -2563,18 -2093,-378 -3641,-1409 -4642,-3093 -305,-620 -517,-1364 -634,-2231 -62,-458 -84,-943 -64,-1456 -12,-289 -9,-587 8,-895 -17,-285 -20,-579 -8,-884 -38,-955 81,-2017 357,-3188 254,-972 701,-1944 1342,-2913l890 -1363 1064 -1304c1911,-2577 4807,-5426 8687,-8547 927,-761 9043,-7098 9436,-7904 166,-388 344,-1361 456,-2337 -68,-123 -170,-175 -307,-156 -162,22 -314,126 -454,311l-199 358 -211 277 -879 1443c-226,361 -527,789 -902,1281l-982 1292c-1949,2307 -4034,3610 -6254,3913 -1626,221 -3003,-171 -4133,-1176 -1430,-1185 -2311,-2996 -2642,-5434 -100,-736 -142,-1529 -126,-2378 -5,-291 -4,-590 5,-895 -8,-289 -10,-584 -4,-887 -30,-1459 127,-3098 471,-4917 434,-2487 994,-4660 1679,-6518 661,-1635 1485,-3485 2473,-5551 298,-648 665,-1194 1101,-1639 530,-569 1065,-890 1607,-963 1300,-177 2047,439 2238,1847 29,215 28,444 -3,689l3 23c36,267 26,557 -32,870 12,64 22,130 32,198 29,214 28,444 -3,687l3 25c81,596 -71,1306 -455,2131l-517 1064 -270 450 -270 450c-728,1534 -1438,3617 -2129,6249 -674,2353 -1094,4535 -1262,6544l-3 490c254,1453 922,2106 1999,1959 326,-44 714,-235 1164,-572l525 -403 514 -483c638,-583 1312,-1310 2021,-2179 1091,-1307 2279,-3124 3562,-5451 924,-1725 1792,-3664 2602,-5816 409,-1049 772,-2036 1087,-2962l144 -765 237 -694c189,-632 370,-1126 543,-1481 453,-724 1059,-1138 1818,-1241 1084,-147 1831,275 2242,1267l191 801c41,303 50,627 27,973 21,283 16,583 -15,901 31,276 36,569 15,880 23,306 15,633 -24,980l-159 1263 -393 3199 -300 3268 -311 3188 -48 254 -48 255 -1 12c93,194 219,280 377,258 3480,-474 8126,-12679 9018,-16455 379,-1714 880,-4250 3028,-4541 1354,-184 967,635 2387,564 2048,-102 4614,-3429 8810,-3999 1788,-243 3149,233 4084,1431 606,800 978,1715 1118,2744 64,471 86,962 66,1474 12,292 9,591 -9,897 17,287 20,582 8,883 56,1383 -218,2929 -822,4637l-791 2094 -781 2175c-402,1129 -681,2155 -838,3076 260,742 780,1059 1560,953 542,-73 1206,-467 1991,-1181 645,-529 1225,-1132 1740,-1810 803,-992 1569,-2255 2299,-3788l873 -2105 626 -1433 58 -232c808,-2979 1790,-5706 2943,-8180l377 -880 529 -982c399,-717 824,-1243 1275,-1580 357,-214 725,-347 1104,-399 921,-125 1623,166 2105,873 199,249 317,508 354,779 27,201 23,415 -11,644l11 68c35,260 19,542 -49,846 23,73 39,147 49,222 27,201 23,416 -11,644l11 68c66,488 -50,1055 -348,1703l-388 797 -399 716c-675,1526 -1229,2926 -1663,4199l-119 347 -107 428c-172,354 -314,733 -424,1134 -301,1034 -575,2064 -821,3091 -391,1564 -643,2935 -757,4114l5 34c243,1788 1069,2585 2477,2394 1300,-177 2534,-841 3702,-1993 926,-898 1761,-2060 2505,-3485 1363,-2558 2517,-5225 3464,-8002l629 -2072 640 -1990 285 -949 274 -1030c290,-702 631,-1245 1020,-1628 389,-384 828,-609 1315,-675 867,-118 1538,149 2013,802 199,249 325,563 376,942 28,205 27,438 -2,699l2 13c35,256 25,556 -29,899 11,55 21,111 29,169 28,205 27,438 -2,699l2 13c51,379 6,854 -137,1426l-226 775 -155 684c-639,2474 -1018,4667 -1139,6579 21,288 50,567 87,838 103,758 292,1339 568,1743 298,567 745,809 1341,728 4659,-633 3212,-5971 5705,-7105 148,-130 331,-210 547,-239 1354,-184 2127,428 2319,1836 35,261 39,539 13,830 28,284 20,586 -21,901l7 49c36,262 39,542 13,834 328,3381 -4411,9371 -8383,9911 -1462,199 -2771,-92 -3926,-873 -245,-187 -503,-455 -771,-806 -316,-288 -577,-584 -783,-886 -283,-458 -560,-669 -831,-633 -163,22 -388,191 -676,506 -2491,3274 -4372,6719 -9015,7350zm-98829 14171c-134,-1122 384,-1978 930,-2890l458 -890c1557,-2750 2803,-5346 3740,-7791l732 -1921 689 -1704 -332 -487c-391,-444 -617,-882 -675,-1315 -34,-249 -34,-484 1,-704l-1 -8c-43,-316 -31,-608 37,-877 -16,-64 -28,-128 -37,-191 -34,-249 -33,-483 1,-702l-1 -10c-140,-1029 306,-1807 1338,-2333 202,-138 404,-276 606,-413l547 -241c722,-374 1174,-904 1356,-1591 1595,-4907 2678,-10737 3249,-17491l104 -786c-21,-299 -50,-585 -88,-862 -250,-1842 -941,-3072 -2074,-3690 -770,-392 -1670,-518 -2699,-377 -758,103 -1556,322 -2394,656 -682,259 -1380,601 -2094,1030 -2569,1397 -4858,3226 -6868,5486 -1860,2114 -3215,4304 -4063,6569 134,268 146,565 64,869 90,285 58,595 -66,909 136,270 147,567 64,872 702,2211 -5969,5931 -5938,1070l23 -217c-16,-155 -24,-319 -23,-495 14,-135 29,-269 44,-404 -30,-201 -46,-421 -44,-665l23 -217c-16,-154 -24,-318 -23,-495 257,-2573 1013,-5131 2267,-7674 1208,-2481 2796,-4794 4767,-6938 2274,-2350 4776,-4235 7507,-5655 2010,-1046 4043,-1709 6102,-1989 3739,-508 6519,465 8343,2921 1019,1406 1679,3220 1981,5441 159,1170 231,2454 216,3853 3,289 2,583 -3,882l0 9c5,291 6,587 3,887l0 2c5,449 0,910 -14,1384 -110,1229 -266,2712 -471,4451l-292 2109 -293 2109c-234,1522 -487,2908 -759,4159 -113,460 -210,872 -292,1239 64,13 138,14 221,2 325,-44 721,-181 1186,-410l535 -321 222 -196 152 -103c2384,-1538 4666,-3421 6846,-5648 2602,-2782 4742,-5500 6422,-8157 1259,-2102 2580,-4958 3966,-8567 1003,-2796 1562,-5338 2107,-8232 340,-1150 1025,-1795 2054,-1935 1463,-199 2304,514 2526,2140 59,432 75,906 58,1408 11,289 8,592 -8,905 16,280 18,574 8,878 107,2834 -1149,6944 -2074,9425 -1023,2622 -2223,5158 -3600,7607 -1665,2764 -3522,5335 -5572,7710 -1675,1883 -3648,3807 -5919,5771l-1936 1587 -286 238c2557,1307 4582,2617 6074,3931 2129,1862 3818,4336 5064,7422 335,837 558,1662 668,2475 63,460 81,877 54,1250 20,316 15,609 -14,876 30,326 34,627 14,905 114,1828 -596,2846 -2131,3055 -1192,161 -1983,-585 -2374,-2243 -347,-1332 -948,-2713 -1805,-4141 -1437,-2453 -3581,-4423 -6432,-5911l-1873 -987c-763,-338 -1434,-605 -2012,-802l-879 -377 -867 -296c-749,-229 -1393,-307 -1936,-233 -595,81 -1077,395 -1444,941 -141,185 -270,450 -388,797l-296 868 -628 2072 -802 2012c-1439,3585 -3783,9763 -6047,12740 -515,677 -1124,1064 -1828,1159 -596,82 -1171,-89 -1724,-510 -546,-367 -861,-848 -942,-1444 -36,-268 -36,-520 -7,-762 -37,-316 -23,-611 28,-891 -8,-42 -16,-85 -22,-128 -36,-268 -36,-520 -6,-762zm37035 14582c1788,-243 3422,-1210 4903,-2901 1192,-1376 2203,-2865 3034,-4468l669 -1167 669 -1167c492,-840 888,-1583 1186,-2231l1131 -2636c416,-995 767,-1870 1050,-2625l129 -266 118 -347 47 -162c-271,39 -630,226 -1077,560l-525 402 -222 196 -151 103c-1244,997 -2574,2171 -3991,3522l-1751 1728 -1914 1750c-1758,1674 -3044,3173 -3858,4497l-410 635 -410 635c-313,539 -579,1017 -799,1433 -185,406 -329,795 -431,1168 369,1079 1236,1526 2601,1341zm35258 -9212c-25,-297 -15,-602 18,-904 -38,-286 -40,-582 -18,-876 -49,-585 38,-1200 165,-1760 155,-678 397,-1344 671,-1982 76,-179 264,-566 468,-1007 -83,-33 -167,-64 -251,-94l-208 -79 -178 -52c-138,-49 -298,-83 -444,-57 -216,39 -334,280 -398,458 -694,2386 -1169,4005 -2474,6181 -1308,2182 -3015,4200 -5261,5445 -624,366 -1340,582 -2049,711 -1359,248 -2609,-7 -3679,-895 -864,-676 -1321,-1629 -1515,-2695 -101,-555 -132,-1114 -108,-1670 -13,-298 -9,-596 11,-893 -20,-295 -23,-590 -11,-885 -54,-1179 169,-2361 540,-3486 454,-1295 1057,-2582 1884,-3682 789,-1048 1820,-2145 3060,-2638 236,-98 481,-173 733,-219 399,-73 802,-73 1202,-5 594,101 1102,389 1536,802 391,373 635,828 732,1360 56,305 62,612 30,916 34,300 22,601 -24,898 50,294 55,590 24,884 80,710 -95,1426 -376,2078 -120,279 -261,581 -433,832 -938,1725 -3385,1353 -3413,-568 -2,-124 10,-247 34,-364 -20,-110 -32,-226 -34,-348 -3,-187 25,-367 78,-536 -27,-91 -47,-188 -61,-290 -329,296 -622,629 -884,988 -769,1050 -1343,2206 -1686,3469 -86,275 -157,554 -213,835 279,1005 1049,1242 2105,1049 1502,-275 2846,-1385 3870,-2460 833,-873 1566,-2048 2167,-3089 819,-1417 1309,-2712 1764,-4187 -75,-181 -130,-369 -166,-562 -59,-326 -71,-638 -33,-935 -36,-307 -28,-601 27,-881 -53,-313 -63,-613 -27,-899 -101,-869 153,-1633 795,-2265 289,-313 641,-519 1060,-596 879,-161 1415,254 1574,1121 51,284 46,606 26,905 26,273 12,567 -8,834l-10 84 1 4c38,210 220,338 399,420l386 167c707,239 1418,527 2071,908 571,372 992,879 1116,1560 50,272 48,531 12,784 47,312 27,609 -32,898l8 36c726,87 1380,627 1724,1280 134,-303 265,-607 391,-913 189,-704 419,-1399 676,-2081 799,-2125 2026,-4102 3939,-5389 500,-337 1074,-537 1665,-645 664,-122 1308,-39 1895,315 584,378 921,932 1046,1614 59,322 67,647 36,970 31,300 20,600 -22,898 46,294 50,589 22,883 88,873 -171,1757 -535,2544 -458,990 -1266,1905 -2044,2658 -411,397 -856,791 -1330,1112 -253,171 -523,315 -798,439l-1007 514c293,49 600,29 890,-24 1393,-254 2614,-1069 3635,-2017 385,-357 741,-743 1065,-1150 324,-424 631,-864 934,-1303 740,-1070 1210,-2066 1594,-3305 366,-1182 652,-2306 1125,-3456l171 -452 237 -493c156,-313 362,-634 635,-859l7 -6 7 -5c183,-122 383,-207 599,-247 494,-90 920,40 1221,441 117,133 199,283 230,458 36,197 18,400 -29,597 13,37 22,76 29,115 49,269 -2,548 -91,807 43,81 75,167 91,261 36,197 18,400 -29,597 13,37 22,76 29,116 58,317 -23,648 -144,945 -754,1748 -1293,3398 -1660,5267 -56,286 -114,604 -163,934 133,481 400,824 988,716 659,-121 1206,-514 1655,-996 463,-496 822,-1094 1111,-1706 601,-1275 1106,-2594 1498,-3941l261 -1026 267 -980 117 -463 113 -520 4 -12c114,-314 271,-633 499,-879 199,-215 440,-363 729,-415 467,-86 876,36 1173,408 135,154 210,339 246,539 37,206 22,432 -14,647l14 66c45,247 14,523 -37,775l-19 80c25,69 43,140 57,214 37,206 22,432 -14,647l14 66c45,248 14,524 -37,775l-91 374 -61 338c-134,636 -257,1330 -332,2035 12,84 25,168 40,251 46,249 126,552 281,758l6 9 5 9c122,207 305,213 525,233 1944,176 2727,-5338 3098,-7030 4,-81 13,-158 29,-232 -79,-626 -32,-936 441,-1447 199,-214 441,-362 729,-415 468,-85 876,36 1174,408 135,154 210,339 246,538 38,206 22,433 -14,648l14 64c45,248 14,523 -37,775l-20 80c25,69 43,140 57,213 38,206 22,433 -14,648l14 64c45,248 14,523 -37,775l-92 375 -61 339c-133,635 -256,1330 -332,2035 12,84 25,168 40,250 45,249 126,552 281,758l7 9 5 9c1153,1969 2317,-812 2586,-1850 170,-654 278,-1330 356,-2001 129,-1116 174,-2240 201,-3363 7,-272 -6,-1623 138,-1819 802,-1086 2203,-1606 3487,-1096 1174,467 2814,1046 3073,2467 47,256 46,518 11,777 45,299 27,605 -32,904l17 80 302 44c1372,332 1946,1750 1838,3294 22,291 16,592 -16,897 32,285 37,582 16,885 156,2119 -1122,4804 -3494,5237 -741,135 -1442,7 -2078,-408 -605,-418 -970,-998 -1102,-1721 -61,-336 -69,-689 -43,-1041 -25,-297 -15,-602 18,-903 -38,-286 -40,-581 -18,-876 -49,-585 37,-1202 164,-1762 154,-677 397,-1344 670,-1981 71,-165 241,-527 430,-946 -342,-135 -697,-214 -822,-122 -397,291 -630,1483 -722,1941 -232,1167 -397,2342 -655,3505 -440,1980 -1266,4729 -3586,5153 -1211,221 -2181,-230 -2914,-1206 -260,-380 -350,-142 -558,159 -1392,2014 -3752,3066 -5497,744 -32,-47 -99,-135 -163,-140 -271,-20 -1247,1467 -1425,1700 -820,1072 -1810,2019 -3188,2271 -1422,260 -2593,-158 -3425,-1351 -255,-339 -454,-708 -599,-1103 -1274,1712 -2863,3103 -4848,3948 -558,238 -1138,415 -1734,525 -1755,320 -3382,18 -4405,-1555 -29,-49 -57,-98 -84,-148 -1096,1915 -3756,3962 -5893,2569 -606,-418 -970,-999 -1102,-1722 -62,-337 -70,-689 -44,-1041zm-60166 11269c-8,-143 -13,-287 -13,-431l20 -434 -4 -219 37 -185c25,-290 66,-580 115,-874l178 -880c258,-1155 598,-2297 1046,-3386l143 -378 197 -409c131,-264 304,-535 534,-724l7 -6 8 -5c155,-103 326,-176 509,-210 422,-77 787,36 1043,377 101,114 171,245 199,396 34,189 12,383 -41,569 18,46 32,94 41,143 48,262 -15,536 -114,784 56,86 96,180 114,285 34,189 12,383 -41,569 18,45 32,93 41,143 49,269 -18,549 -121,802l-147 339 -144 285c-218,562 -420,1129 -588,1709l-38 132 -39 190 -8 18c-61,140 -105,287 -141,435 -99,417 -189,837 -273,1258 -30,151 -61,312 -89,479 118,305 328,504 737,429 541,-98 989,-422 1357,-818 382,-410 678,-904 917,-1408 499,-1057 916,-2150 1241,-3266l216 -853 221 -813 96 -383 95 -434 4 -11c95,-264 228,-533 420,-741 169,-183 377,-309 623,-354 399,-73 750,31 1004,349 115,132 179,291 211,462 35,195 15,410 -23,612 8,33 16,66 23,100 39,210 12,442 -31,656l-41 170c33,77 56,158 72,242 35,196 15,410 -23,612 8,33 16,66 23,100 39,210 12,442 -31,656l-75 310 -50 281c-95,452 -184,939 -247,1438l5 24c37,202 102,449 228,616l7 9 5 9c86,147 191,211 361,180 159,-29 301,-91 430,-177l-3 -80c-2,-116 11,-231 35,-343 -22,-116 -34,-238 -35,-369 -2,-174 27,-346 82,-511 -52,-168 -79,-354 -82,-557 -2,-116 11,-231 35,-343 -22,-116 -34,-239 -35,-369 -13,-895 813,-1748 1711,-1760 1386,-20 1835,898 1704,2062 37,279 25,588 -28,912 55,263 62,557 27,869 246,1852 -1654,4994 -3610,5352 -613,112 -1202,21 -1743,-311 -132,-91 -249,-210 -353,-332 -128,-109 -249,-230 -355,-371 -22,-33 -117,-159 -152,-164 -43,17 -130,117 -154,145l-336 486 -121 258 -9 13c-98,141 -196,283 -296,428 -710,979 -1642,1804 -2865,2027 -1192,218 -2179,-135 -2874,-1132 -352,-470 -574,-1003 -680,-1580 -61,-337 -82,-687 -83,-1039l13 -281c-8,-143 -13,-287 -13,-431l20 -433 -2 -128c-12,-168 -17,-337 -18,-507l13 -281zm110079 -26379c-22,-278 -13,-563 9,-839l51 -543 102 -460 175 -1118 220 -1079 444 -2118 449 -2075c148,-724 311,-1446 481,-2170l557 -2172c351,-1368 708,-2776 1149,-4115l176 -563 219 -523c253,-517 648,-897 1237,-975 745,-99 1218,228 1288,987 24,179 10,375 -19,567 8,46 14,95 19,145 32,241 -3,515 -56,765 27,92 45,193 56,302 24,179 10,375 -19,567 8,46 14,95 19,145 39,294 -23,638 -92,928l-214 845 -652 2062c-401,1324 -786,2649 -1160,3974 -144,700 -314,1392 -489,2081l-443 2117c-343,1517 -654,3040 -964,4563l-222 1089 -135 502c-52,191 -131,380 -260,549l-8 8c246,272 397,598 447,976 29,221 26,436 -10,645l10 67c37,285 21,560 -49,823 21,79 38,161 49,245 29,222 26,438 -10,646l10 66c69,525 -45,1016 -336,1459 -339,516 -823,820 -1435,901 -449,59 -867,-61 -1226,-335 -384,-294 -592,-698 -656,-1176 -27,-210 -21,-414 16,-611 -6,-33 -11,-67 -16,-101 -36,-273 -14,-536 57,-787 -25,-91 -44,-185 -57,-281 -27,-210 -21,-414 16,-611 -6,-33 -11,-67 -16,-101 -74,-552 94,-1064 418,-1520 257,-336 574,-609 961,-749 -34,-112 -57,-227 -72,-342 -38,-287 -36,-588 -18,-882 -22,-277 -13,-563 9,-839l7 -74c-36,-283 -34,-579 -16,-867zm-6200 4932c488,220 956,-18 1297,-441 -98,-44 -212,-74 -342,-87 -163,-16 -324,0 -476,51 -127,46 -245,111 -355,189l-94 216 -30 71zm-40546 8018c470,12 984,-529 1301,-969 -181,3 -404,46 -674,136 -127,46 -245,111 -355,189l-93 216 -179 429z"/>
  <path class="fil2" d="M116409 76101c-2871,390 -5045,-583 -6521,-2920 -473,-693 -836,-1443 -1088,-2251 -1252,1654 -2563,2880 -3932,3679 -869,504 -1846,830 -2929,978 -1896,258 -3451,-221 -4664,-1435 -891,-872 -1440,-2066 -1646,-3583 -199,-1462 -72,-2969 378,-4520 341,-1150 853,-2654 1539,-4513 114,-336 1735,-3495 352,-4664 -2757,-2318 -8348,2497 -8583,3040 -2552,5893 -4763,14425 -5663,16921l-344 1123c-212,470 -408,856 -588,1156 -399,716 -950,1123 -1655,1218 -488,66 -943,-37 -1367,-311 -485,-320 -768,-778 -849,-1375 -39,-285 -18,-600 63,-944 -348,394 -695,754 -1038,1077 -1217,1133 -2305,2196 -3720,3072 -497,398 -836,748 -1016,1049 -187,246 -352,655 -495,1226l-144 764 -63 753 -370 1540 -381 1459c-700,2964 -2211,6866 -4532,11706 -2235,4663 -4963,7930 -8185,9803 -1180,657 -2365,1066 -3557,1228 -867,118 -1722,124 -2563,17 -2093,-378 -3641,-1409 -4642,-3093 -305,-620 -517,-1364 -634,-2231 -155,-1138 -57,-2447 293,-3930 254,-972 701,-1944 1342,-2914l890 -1362 1064 -1304c1911,-2577 4807,-5426 8687,-8547 927,-761 9043,-7098 9436,-7904 314,-734 673,-3566 541,-4543 -44,-325 -174,-473 -391,-443 -162,22 -314,126 -454,310l-199 358 -211 277 -879 1444c-227,362 -527,789 -902,1281l-983 1292c-1949,2306 -4034,3611 -6254,3913 -1626,221 -3003,-171 -4133,-1176 -1430,-1185 -2311,-2996 -2642,-5434 -251,-1842 -136,-4037 345,-6585 434,-2487 994,-4659 1679,-6518 661,-1635 1485,-3485 2473,-5550 298,-648 665,-1194 1101,-1640 530,-569 1065,-890 1607,-963 1300,-177 2046,439 2238,1847 81,596 -71,1306 -455,2131l-517 1064 -270 450 -270 450c-729,1534 -1438,3617 -2129,6249 -673,2353 -1094,4535 -1262,6544l-4 580 -74 672c-34,557 -23,1052 36,1485 221,1625 900,2360 2038,2206 326,-44 713,-235 1164,-572l524 -403 514 -483c638,-583 1312,-1310 2021,-2179 1091,-1307 2279,-3124 3562,-5451 924,-1725 1791,-3664 2602,-5816 409,-1049 772,-2036 1087,-2962l144 -764 237 -694c190,-633 371,-1127 543,-1481 453,-724 1059,-1137 1818,-1241 1083,-147 1830,275 2242,1268l191 801c51,379 53,793 3,1241l-159 1263 -393 3198 -300 3268 -311 3188 -48 254 -48 255 -74 672c-89,564 -115,981 -78,1252 81,596 257,875 527,839 3479,-474 8126,-12679 9018,-16455 380,-1714 881,-4250 3029,-4541 1354,-184 967,635 2386,564 2049,-103 4615,-3429 8811,-3999 1788,-243 3149,234 4084,1431 606,801 978,1715 1118,2745 213,1571 -38,3371 -756,5400l-791 2094 -780 2175c-599,1682 -926,3133 -980,4354l-4 579c162,1192 731,1721 1706,1589 541,-73 1206,-467 1991,-1181 645,-529 1225,-1132 1740,-1809 803,-992 1569,-2255 2299,-3788l873 -2105 625 -1433 58 -232c809,-2979 1790,-5706 2943,-8180l376 -880 529 -982c399,-717 825,-1243 1275,-1580 357,-214 725,-347 1104,-399 921,-125 1623,166 2105,873 199,249 318,508 354,779 66,487 -50,1055 -348,1703l-388 798 -399 716c-675,1527 -1230,2926 -1663,4199l-119 348 -107 428c-172,354 -314,732 -425,1134 -301,1034 -575,2064 -821,3091 -715,2856 -966,5070 -752,6640 243,1788 1069,2586 2477,2394 1300,-177 2534,-841 3702,-1993 926,-898 1761,-2060 2505,-3486 1363,-2558 2517,-5225 3464,-8002l629 -2072 640 -1990 285 -949 274 -1030c290,-702 631,-1245 1020,-1629 389,-384 828,-609 1315,-675 867,-118 1538,149 2013,802 199,249 325,563 376,942 52,379 6,854 -137,1426l-225 775 -156 683c-1048,4060 -1398,7363 -1052,9909 103,758 293,1339 568,1743 298,567 745,809 1341,728 4659,-633 3212,-5971 5705,-7105 148,-130 331,-210 547,-240 1354,-184 2128,428 2319,1836 456,3356 -4350,9486 -8370,10033 -1462,199 -2771,-92 -3926,-873 -246,-187 -503,-456 -771,-806 -316,-288 -576,-584 -783,-886 -283,-458 -560,-669 -831,-632 -163,22 -388,191 -676,506 -2491,3274 -4372,6719 -9015,7350zm-96157 18669c-596,81 -1171,-89 -1725,-510 -546,-367 -860,-848 -941,-1445 -156,-1147 370,-2014 924,-2939l458 -890c1557,-2750 2803,-5347 3740,-7792l732 -1920 743 -1839 108 -428 107 -429c118,-347 163,-629 133,-846 -22,-162 -129,-341 -321,-536l-414 -606c-391,-444 -617,-881 -675,-1315 -140,-1029 306,-1807 1338,-2333 202,-138 404,-276 606,-413l547 -240c722,-374 1174,-905 1356,-1591 1595,-4907 2678,-10737 3249,-17491l122 -927 19 -1078c6,-773 -36,-1485 -125,-2135 -250,-1842 -941,-3072 -2074,-3691 -770,-392 -1670,-518 -2699,-378 -759,103 -1556,322 -2394,656 -682,259 -1380,601 -2095,1030 -2568,1397 -4858,3226 -6868,5486 -2151,2444 -3626,4990 -4424,7636 -96,307 -182,607 -257,900 46,0 -1047,-803 138,2 2847,1937 -5431,7163 -5397,1751 257,-2573 1013,-5131 2267,-7674 1208,-2481 2796,-4794 4767,-6938 2274,-2351 4776,-4236 7507,-5656 2009,-1046 4043,-1709 6102,-1989 3739,-508 6519,465 8343,2920 1019,1406 1679,3221 1981,5441 184,1355 251,2863 202,4525 -109,1229 -266,2712 -471,4450l-292 2109 -293 2108c-234,1522 -487,2908 -758,4159 -461,1883 -669,2988 -625,3313 44,325 229,465 554,421 325,-44 721,-180 1186,-410l535 -321 222 -196 152 -103c2384,-1538 4666,-3421 6846,-5648 2602,-2782 4742,-5500 6422,-8157 1258,-2102 2580,-4958 3966,-8567 1002,-2797 1562,-5338 2108,-8232 340,-1150 1025,-1795 2054,-1935 1463,-199 2304,515 2525,2140 383,2816 -1013,7430 -2016,10123 -1023,2622 -2223,5158 -3600,7607 -1665,2764 -3522,5335 -5572,7710 -1675,1883 -3648,3806 -5919,5771l-1936 1587 -596 495 -665 587c-350,268 -513,484 -491,646 29,217 280,431 749,643 2898,1426 5161,2857 6790,4290 2129,1862 3818,4336 5064,7422 335,837 558,1662 668,2475 295,2167 -397,3365 -2077,3593 -1192,162 -1983,-586 -2374,-2243 -347,-1332 -948,-2713 -1805,-4141 -1437,-2453 -3581,-4424 -6432,-5912l-1872 -987c-763,-338 -1434,-605 -2012,-802l-879 -377 -868 -296c-748,-229 -1393,-307 -1935,-233 -595,81 -1077,395 -1444,942 -140,184 -270,450 -388,797l-296 868 -629 2072 -802 2012c-1439,3585 -3783,9763 -6047,12740 -515,677 -1125,1064 -1828,1159zm34363 12577c1788,-243 3422,-1210 4903,-2902 1192,-1376 2203,-2865 3034,-4468l669 -1167 669 -1167c493,-839 888,-1583 1186,-2231l1131 -2636c416,-995 767,-1870 1050,-2626l129 -266 118 -347 225 -775c244,-640 344,-1122 299,-1448 -44,-325 -201,-469 -472,-432 -271,37 -632,224 -1082,561l-525 402 -222 196 -151 103c-1244,997 -2574,2171 -3990,3522l-1751 1728 -1914 1750c-1758,1674 -3044,3173 -3857,4497l-410 635 -410 635c-313,539 -579,1017 -799,1433 -510,1118 -706,2110 -588,2977 214,1571 1133,2246 2758,2025z"/>
  <path class="fil3" d="M96911 95835c-1096,1915 -3755,3962 -5893,2569 -605,-418 -970,-998 -1102,-1721 -124,-678 -30,-1423 122,-2089 154,-678 397,-1344 670,-1982 209,-489 1251,-2545 1176,-2956 -40,-222 -298,-364 -494,-449 -147,-73 -307,-133 -465,-188l-208 -79 -178 -52c-139,-49 -298,-83 -445,-57 -215,39 -334,280 -399,458 -693,2387 -1169,4005 -2473,6181 -1308,2182 -3015,4200 -5261,5445 -625,365 -1340,581 -2049,711 -1359,248 -2609,-7 -3679,-895 -864,-675 -1321,-1629 -1516,-2695 -272,-1491 -39,-3012 433,-4441 453,-1295 1056,-2582 1884,-3682 788,-1049 1820,-2145 3060,-2638 236,-99 481,-174 733,-220 399,-73 802,-73 1202,-5 594,101 1102,388 1536,802 391,373 635,828 732,1360 142,777 -38,1568 -346,2282 -120,279 -261,581 -433,832 -938,1724 -3385,1353 -3413,-568 -13,-936 735,-1705 1670,-1718 23,0 45,0 68,0 39,-126 64,-266 42,-388 -44,-240 -199,-262 -420,-221 -163,30 -328,91 -479,160l-245 163 -175 110c-516,372 -953,834 -1328,1346 -769,1050 -1344,2206 -1686,3469 -183,590 -301,1195 -344,1811 -30,429 0,857 77,1280 220,1205 1025,1493 2159,1286 1501,-275 2845,-1385 3869,-2459 832,-873 1566,-2049 2167,-3089 972,-1682 1481,-3192 2017,-5034l85 -419c48,-235 38,-528 -102,-751l-193 -380c-96,-210 -166,-431 -208,-658 -176,-961 65,-1803 762,-2487 289,-313 640,-519 1060,-596 880,-161 1415,254 1574,1121 59,323 43,696 17,1027l-45 401c5,131 13,271 36,400 39,210 220,338 399,420l386 167c707,239 1418,526 2071,908 571,372 992,878 1116,1559 111,609 -37,1154 -243,1707 816,-14 1575,571 1955,1292 134,-303 264,-607 391,-913 189,-704 419,-1399 676,-2081 799,-2124 2026,-4102 3939,-5389 500,-337 1074,-538 1665,-646 664,-121 1308,-38 1895,315 584,378 921,932 1046,1614 175,955 -98,1938 -498,2802 -458,990 -1266,1906 -2043,2658 -411,397 -856,791 -1330,1112 -253,171 -523,315 -797,439l-1129 576 -368 146c-199,110 -431,255 -572,424 -124,180 -104,444 -67,648 86,469 290,880 728,1093 403,182 865,174 1291,96 1392,-254 2614,-1069 3635,-2017 384,-357 741,-743 1065,-1150 324,-424 631,-864 934,-1302 740,-1071 1210,-2067 1594,-3304 366,-1183 652,-2306 1126,-3457l171 -452 237 -493c156,-313 361,-635 634,-859l7 -6 8 -5c183,-121 383,-207 599,-247 494,-90 920,40 1220,441 117,133 199,284 231,459 58,317 -23,648 -144,945 -754,1748 -1293,3398 -1660,5267 -185,942 -393,2227 -219,3181 110,603 359,1086 1043,961 659,-121 1206,-514 1656,-997 463,-496 822,-1095 1111,-1706 601,-1275 1105,-2593 1497,-3941l261 -1026 266 -980 117 -463 113 -520 5 -12c113,-314 271,-633 499,-879 198,-214 440,-362 729,-415 467,-86 876,36 1173,408 135,154 210,339 246,539 45,248 14,523 -37,775l-91 374 -61 339c-311,1478 -566,3276 -292,4777 46,250 126,552 281,758l6 8 5 9c121,207 305,214 525,233 2013,182 2782,-5738 3136,-7196 -90,-671 -56,-985 433,-1514 198,-215 441,-362 729,-415 468,-85 876,36 1174,408 135,153 210,339 246,538 45,248 14,523 -37,775l-91 375 -61 339c-310,1478 -566,3277 -291,4778 45,249 126,552 281,758l6 8 5 10c1153,1969 2317,-812 2586,-1850 170,-654 278,-1330 356,-2001 129,-1116 174,-2240 201,-3363 6,-273 -6,-1623 138,-1820 802,-1086 2203,-1606 3487,-1096 1175,467 2814,1046 3073,2467 100,550 -21,1124 -216,1644l-30 77c55,5 110,14 165,29l380 55c3121,756 2114,7132 -1656,7820 -741,135 -1442,8 -2079,-407 -605,-418 -970,-999 -1102,-1722 -124,-678 -30,-1423 121,-2088 154,-678 397,-1344 670,-1982 205,-478 1237,-2612 1176,-2954 -72,-259 -1310,-795 -1568,-606 -397,291 -630,1483 -721,1941 -232,1167 -397,2342 -655,3505 -440,1980 -1266,4729 -3586,5153 -1211,221 -2181,-230 -2914,-1206 -260,-381 -350,-142 -558,159 -1392,2014 -3752,3066 -5497,744 -32,-47 -99,-136 -163,-140 -271,-21 -1247,1468 -1425,1700 -820,1072 -1810,2019 -3188,2271 -1422,260 -2594,-157 -3425,-1350 -255,-339 -454,-708 -599,-1103 -1275,1711 -2864,3103 -4848,3948 -558,238 -1138,416 -1734,525 -1755,320 -3382,18 -4405,-1555 -29,-49 -57,-98 -84,-148zm-59292 14066c-128,-109 -248,-230 -354,-371 -22,-32 -117,-158 -152,-164 -43,17 -130,116 -154,145l-336 486 -121 259 -8 13c-98,141 -196,283 -296,428 -710,979 -1642,1804 -2865,2027 -1192,218 -2178,-135 -2874,-1132 -352,-470 -574,-1003 -680,-1580 -62,-337 -82,-687 -83,-1040l20 -434 -4 -219 38 -185c25,-290 66,-580 114,-874l178 -880c258,-1155 598,-2296 1047,-3387l143 -377 197 -409c132,-264 304,-534 535,-723l8 -6 8 -5c155,-103 325,-176 509,-210 421,-77 787,36 1043,377 101,114 171,245 199,396 49,269 -19,549 -122,802l-146 339 -144 285c-218,562 -420,1129 -588,1709l-39 132 -39 191 -8 18c-61,140 -105,287 -141,435 -99,418 -189,837 -273,1258 -156,780 -326,1838 -181,2629 88,482 280,873 828,772 541,-99 989,-422 1357,-818 382,-409 678,-904 917,-1408 499,-1057 916,-2150 1241,-3266l216 -852 221 -813 96 -383 95 -434 4 -12c96,-264 228,-533 421,-741 169,-183 377,-309 623,-354 400,-73 750,31 1004,349 116,132 180,291 211,462 39,210 12,442 -31,656l-75 310 -50 281c-257,1223 -469,2713 -242,3954 37,202 102,450 228,616l6 8 5 10c86,146 191,211 361,180 629,-115 999,-745 1244,-1298 -538,-316 -808,-786 -817,-1451 -13,-894 812,-1747 1711,-1760 3591,-51 899,6190 -1906,6702 -612,112 -1202,21 -1743,-310 -132,-91 -249,-211 -353,-333zm103374 -25548c-373,49 -690,-70 -901,-381 -171,-224 -252,-503 -289,-779 -43,-329 -35,-676 -9,-1009l51 -542 102 -460 175 -1118 220 -1079 444 -2118 449 -2075c149,-724 311,-1446 481,-2170l558 -2172c351,-1369 708,-2776 1149,-4115l176 -564 219 -523c253,-518 648,-897 1237,-975 746,-99 1218,228 1288,987 39,295 -23,638 -92,928l-214 845 -652 2062c-401,1323 -786,2649 -1160,3974 -145,700 -314,1392 -489,2081l-444 2117c-343,1516 -653,3040 -964,4562l-222 1089 -135 502c-51,191 -130,379 -260,549 -192,214 -433,345 -717,383zm-614 5455c-449,59 -867,-61 -1226,-335 -384,-294 -592,-699 -656,-1175 -74,-552 94,-1064 418,-1520 331,-434 761,-762 1313,-835 463,-62 894,45 1272,335 365,306 587,698 650,1170 69,525 -45,1017 -336,1459 -339,516 -823,820 -1435,901zm-6670 -4632l-93 216 -369 882c-101,236 -187,480 -249,729 1,104 20,204 59,302l5 10 2 11c61,230 172,453 406,570 1522,909 2920,-2779 1071,-2960 -164,-16 -325,0 -477,51 -127,46 -245,111 -355,189zm-31408 2788c45,-68 87,-140 119,-215l10 -23 15 -19c159,-199 307,-409 435,-629 147,-251 518,-917 462,-1221 -8,-48 -25,-116 -75,-137l-78 -11 -127 23c-478,88 -889,408 -1216,756l-575 587c-166,208 -324,422 -476,641 -316,458 -582,954 -808,1462l-7 16 -57 83 -20 68 -117 270c-46,116 -117,318 -93,445 2,14 10,49 23,50 253,-46 506,-180 714,-315l350 -263 318 -262c400,-318 751,-729 1049,-1134l81 -118 71 -53zm-8988 4873l-93 216 -369 882c-86,200 -161,439 -234,646 -125,358 -269,1055 133,1306 674,420 1569,-776 1827,-1249 588,-1079 881,-2589 -909,-1990 -127,46 -245,110 -355,189z"/>
  <path class="fil4" d="M46095 27406c0,-502 165,-920 494,-1254 329,-334 746,-501 1252,-501 522,0 940,151 1254,452l-243 360c-126,-113 -279,-204 -459,-272 -180,-68 -357,-102 -532,-102 -389,0 -698,125 -926,374 -229,250 -342,563 -342,938 0,379 117,700 350,963 234,263 543,394 929,394 191,0 380,-40 566,-119 186,-80 349,-189 488,-328l257 345c-363,363 -805,545 -1327,545 -522,0 -946,-171 -1271,-513 -326,-342 -489,-769 -489,-1281zm6184 1570l219 -365c149,114 280,170 394,170 94,0 169,-32 226,-95 56,-63 111,-160 163,-289l-1356 -2688 530 0 836 1726 195 452 9 0c49,-159 98,-308 146,-447l637 -1731 506 0 -1094 2800c-181,460 -442,691 -783,691 -204,0 -413,-75 -627,-224zm5576 165l0 -3432 2703 0 0 3432 -481 0 0 -3014 -1740 0 0 3014 -482 0zm6184 0l0 -3432 1998 0 0 418 -1517 0 0 1074 1230 0 0 418 -1230 0 0 1104 1599 0 0 418 -2081 0zm5318 0l0 -3432 1259 0c318,0 576,98 775,294 199,196 299,456 299,780 0,324 -100,587 -301,787 -201,201 -459,301 -773,301l-778 0 0 1269 -482 0zm482 -1687l700 0c204,0 366,-60 486,-180 120,-120 180,-284 180,-491 0,-204 -59,-365 -177,-481 -118,-117 -280,-175 -484,-175l-705 0 0 1327zm4900 1687l282 -3432 501 0 792 1857 165 462 10 0c61,-182 118,-336 170,-462l792 -1857 501 0 277 3432 -476 0 -165 -2163 -10 -506 -10 0c-71,211 -133,379 -185,506l-685 1546 -428 0 -681 -1546 -185 -516 -9 0c7,204 3,376 -10,516l-165 2163 -481 0zm6465 0l1230 -3432 510 0 1230 3432 -496 0 -345 -987 -1293 0 -345 987 -491 0zm962 -1385l1040 0 -379 -1084 -136 -491 -10 0c-49,207 -92,371 -131,491l-385 1084zm5109 1385l0 -3432 1259 0c318,0 576,98 775,294 199,196 299,456 299,780 0,324 -100,587 -302,787 -201,201 -458,301 -773,301l-777 0 0 1269 -482 0zm482 -1687l700 0c204,0 366,-60 486,-180 120,-120 180,-284 180,-491 0,-204 -60,-365 -177,-481 -118,-117 -280,-175 -484,-175l-705 0 0 1327zm5031 1687l0 -3432 482 0 0 1444 510 0 870 -1444 529 0 -1001 1629 0 10 1065 1794 -549 0 -914 -1570 -510 0 0 1570 -482 0zm5562 0l0 -3432 1998 0 0 418 -1517 0 0 1074 1229 0 0 418 -1229 0 0 1104 1599 0 0 418 -2081 0zm6120 0l0 -3014 -1181 0 0 -418 2839 0 0 418 -1181 0 0 3014 -476 0z"/>
 </g>
</svg>
