<?xml version="1.0" encoding="iso-8859-1"?>
<!-- Generator: Adobe Illustrator 19.0.0, SVG Export Plug-In . SVG Version: 6.00 Build 0)  -->
<svg version="1.1" id="Capa_1" xmlns="http://www.w3.org/2000/svg" xmlns:xlink="http://www.w3.org/1999/xlink" x="0px" y="0px"
	 viewBox="0 0 512 512" style="enable-background:new 0 0 512 512;" xml:space="preserve">
<g>
	<g>
		<path d="M183.467,128c-18.825,0-34.133,15.309-34.133,34.133s15.309,34.133,34.133,34.133s34.133-15.309,34.133-34.133
			S202.291,128,183.467,128z M183.467,179.2c-9.412,0-17.067-7.654-17.067-17.067c0-9.412,7.654-17.067,17.067-17.067
			s17.067,7.654,17.067,17.067C200.533,171.546,192.879,179.2,183.467,179.2z"/>
	</g>
</g>
<g>
	<g>
		<path d="M294.4,238.933c-18.825,0-34.133,15.309-34.133,34.133c0,18.825,15.309,34.133,34.133,34.133s34.133-15.309,34.133-34.133
			C328.533,254.242,313.225,238.933,294.4,238.933z M294.4,290.133c-9.412,0-17.067-7.654-17.067-17.067
			c0-9.412,7.654-17.067,17.067-17.067s17.067,7.654,17.067,17.067C311.467,282.479,303.812,290.133,294.4,290.133z"/>
	</g>
</g>
<g>
	<g>
		
			<rect x="150.193" y="204.799" transform="matrix(0.7071 -0.7071 0.7071 0.7071 -82.1163 228.4186)" width="168.95" height="17.067"/>
	</g>
</g>
<g>
	<g>
		<path d="M192.7,380.646L148.745,483.2l-17.374-34.739c-1.826-3.669-5.99-5.487-9.975-4.395l-43.008,12.288l44.723-111.864
			l-15.846-6.332l-51.2,128c-1.203,3.012-0.589,6.468,1.596,8.883c2.185,2.415,5.547,3.371,8.678,2.492l52.924-15.121l22.434,44.868
			c1.451,2.901,4.412,4.719,7.637,4.719c0.085,0,0.171,0,0.256,0c3.328-0.094,6.289-2.116,7.595-5.171l51.2-119.467L192.7,380.646z"
			/>
	</g>
</g>
<g>
	<g>
		<path d="M413.244,466.159l-51.2-128l-15.846,6.332l44.74,111.846l-43.008-12.288c-3.959-1.118-8.141,0.717-9.975,4.395
			l-17.655,35.319l-43.759-94.805l-15.497,7.151l51.2,110.933c1.382,2.987,4.335,4.907,7.62,4.958c0.043,0,0.094,0,0.137,0
			c3.226,0,6.187-1.826,7.612-4.719l22.434-44.868l52.924,15.121c3.14,0.879,6.494-0.077,8.678-2.492
			C413.833,472.627,414.455,469.18,413.244,466.159z"/>
	</g>
</g>
<g>
	<g>
		<path d="M445.79,207.625l-37.009-40.969l11.546-53.922c0.913-4.284-1.562-8.567-5.726-9.907l-52.497-16.922L345.19,33.323
			c-1.348-4.173-5.641-6.639-9.924-5.726l-53.922,11.622L240.393,2.21c-3.251-2.935-8.201-2.944-11.443,0l-40.96,37.009
			l-53.922-11.622c-4.292-0.922-8.576,1.545-9.924,5.726l-16.922,52.574l-52.574,16.922c-4.173,1.348-6.647,5.641-5.726,9.924
			l11.622,53.922l-37.009,40.96c-2.935,3.251-2.935,8.192,0,11.443l37.009,40.951l-11.622,53.922
			c-0.93,4.292,1.553,8.585,5.726,9.924l52.582,16.913l16.922,52.497c1.34,4.164,5.623,6.673,9.907,5.726l53.922-11.546
			l40.969,37.009c1.621,1.468,3.669,2.202,5.717,2.202c2.048,0,4.096-0.734,5.726-2.202l40.96-37.009l53.931,11.546
			c4.284,0.956,8.567-1.562,9.907-5.726l16.913-52.497l52.497-16.913c4.164-1.348,6.639-5.623,5.726-9.907l-11.546-53.931
			l37.009-40.96C448.725,215.817,448.725,210.876,445.79,207.625z M393.199,251.827c-1.826,2.031-2.577,4.83-2.005,7.501
			l10.846,50.662l-49.323,15.889c-2.62,0.845-4.668,2.893-5.513,5.513l-15.889,49.323l-50.662-10.846
			c-2.688-0.623-5.47,0.162-7.501,2.005l-38.485,34.765l-38.485-34.765c-1.579-1.434-3.627-2.202-5.717-2.202
			c-0.597,0-1.195,0.06-1.775,0.179l-50.654,10.846l-15.898-49.323c-0.845-2.62-2.893-4.668-5.513-5.513l-49.391-15.889
			l10.914-50.645c0.58-2.679-0.171-5.478-2.005-7.518L41.37,213.333l34.765-38.477c1.835-2.031,2.586-4.838,2.005-7.518
			l-10.914-50.645l49.391-15.889c2.62-0.845,4.668-2.893,5.513-5.513l15.889-49.391l50.645,10.914
			c2.688,0.589,5.487-0.162,7.518-2.005l38.485-34.773l38.485,34.756c2.048,1.835,4.838,2.594,7.526,2.005l50.645-10.914
			l15.889,49.391c0.845,2.62,2.893,4.668,5.513,5.513l49.323,15.898l-10.846,50.654c-0.58,2.688,0.171,5.478,2.005,7.509
			l34.765,38.485L393.199,251.827z"/>
	</g>
</g>
<g>
	<g>
		<path d="M483.524,34.244c-13.909-2.304-24.798-13.201-27.11-27.11C455.731,3.021,452.173,0,448,0s-7.731,3.021-8.414,7.142
			c-2.313,13.909-13.201,24.806-27.11,27.11c-4.122,0.674-7.142,4.233-7.142,8.414s3.021,7.74,7.142,8.422
			c13.909,2.304,24.798,13.201,27.11,27.11c0.683,4.113,4.241,7.134,8.414,7.134s7.731-3.021,8.414-7.142
			c2.313-13.909,13.201-24.806,27.11-27.11c4.122-0.674,7.142-4.241,7.142-8.414S487.654,34.935,483.524,34.244z M448,54.818
			c-3.319-4.719-7.432-8.832-12.16-12.151c4.727-3.319,8.849-7.433,12.16-12.151c3.32,4.719,7.433,8.832,12.16,12.151
			C455.433,45.995,451.32,50.099,448,54.818z"/>
	</g>
</g>
<g>
</g>
<g>
</g>
<g>
</g>
<g>
</g>
<g>
</g>
<g>
</g>
<g>
</g>
<g>
</g>
<g>
</g>
<g>
</g>
<g>
</g>
<g>
</g>
<g>
</g>
<g>
</g>
<g>
</g>
</svg>
