<?xml version="1.0" encoding="UTF-8"?>
<!DOCTYPE svg PUBLIC "-//W3C//DTD SVG 1.1//EN" "http://www.w3.org/Graphics/SVG/1.1/DTD/svg11.dtd">
<!-- Creator: CorelDRAW 2018 (64-Bit) -->
<svg xmlns="http://www.w3.org/2000/svg" xml:space="preserve" width="130.283mm" height="76.2622mm" version="1.1" style="shape-rendering:geometricPrecision; text-rendering:geometricPrecision; image-rendering:optimizeQuality; fill-rule:evenodd; clip-rule:evenodd"
viewBox="0 0 321036 187921"
 xmlns:xlink="http://www.w3.org/1999/xlink">
 <defs>
  <style type="text/css">
   <![CDATA[
    .fil2 {fill:#5B0284}
    .fil1 {fill:#5B0284;fill-rule:nonzero}
    .fil0 {fill:#FCCA00;fill-rule:nonzero}
   ]]>
  </style>
 </defs>
 <g id="Слой_x0020_1">
  <metadata id="CorelCorpID_0Corel-Layer"/>
  <path class="fil0" d="M253424 105096c-6481,880 -11391,-1317 -14722,-6594 -1068,-1563 -1888,-3257 -2457,-5083 -2828,3734 -5786,6503 -8878,8306 -1962,1139 -4167,1874 -6613,2208 -4282,582 -7790,-498 -10531,-3240 -2010,-1968 -3251,-4664 -3716,-8090 -173,-1273 -237,-2562 -191,-3865 -24,-666 -18,-1335 17,-2008 -35,-668 -42,-1340 -17,-2016 -90,-2589 258,-5236 1046,-7945 768,-2596 1924,-5993 3474,-10190 118,-347 953,-2039 1519,-4020 -184,-329 -422,-626 -724,-881 -6225,-5234 -18849,5636 -19379,6862 -5762,13305 -10755,32568 -12785,38203l-776 2536c-479,1060 -920,1931 -1326,2609 -900,1618 -2146,2534 -3736,2750 -1102,150 -2129,-84 -3085,-702 -1096,-722 -1734,-1757 -1918,-3103 -62,-459 -56,-952 20,-1479l-20 -130c-15,-107 -26,-216 -33,-326 -726,812 -1450,1558 -2168,2234 -2748,2558 -5203,4958 -8399,6935 -1123,900 -1888,1689 -2294,2368 -422,555 -795,1478 -1118,2767l-326 1727 -143 1701 -834 3477 -861 3293c-1581,6693 -4991,15502 -10232,26431 -5046,10527 -11206,17904 -18479,22134 -2664,1483 -5341,2408 -8030,2773 -1958,266 -3888,280 -5788,40 -4726,-853 -8220,-3180 -10480,-6984 -690,-1401 -1167,-3080 -1432,-5037 -141,-1033 -190,-2129 -145,-3287 -27,-652 -20,-1325 19,-2021 -39,-643 -46,-1308 -19,-1995 -86,-2157 183,-4555 806,-7197 574,-2195 1583,-4388 3030,-6578l2010 -3076 2402 -2943c4316,-5818 10854,-12251 19613,-19297 2093,-1718 20418,-16025 21304,-17846 374,-875 777,-3073 1030,-5277 -153,-277 -384,-395 -693,-353 -366,50 -709,285 -1026,702l-450 808 -476 626 -1985 3259c-511,816 -1189,1781 -2036,2893l-2218 2917c-4400,5208 -9107,8151 -14121,8834 -3670,499 -6780,-386 -9331,-2654 -3228,-2675 -5218,-6765 -5965,-12269 -227,-1663 -321,-3453 -284,-5370 -12,-657 -9,-1332 10,-2021 -19,-651 -22,-1319 -9,-2003 -67,-3294 287,-6995 1062,-11102 981,-5614 2244,-10521 3791,-14717 1492,-3691 3352,-7868 5584,-12532 673,-1462 1501,-2696 2486,-3701 1196,-1284 2404,-2009 3628,-2175 2935,-400 4621,991 5053,4171 66,484 63,1004 -7,1555l7 53c82,603 59,1258 -71,1965 26,145 50,293 71,447 66,484 63,1002 -7,1552l7 56c182,1345 -160,2948 -1028,4810l-1168 2402 -610 1017 -610 1017c-1645,3462 -3248,8166 -4806,14108 -1521,5313 -2471,10239 -2850,14776l-7 1107c574,3280 2081,4754 4514,4423 735,-99 1611,-530 2628,-1291l1185 -909 1160 -1091c1440,-1317 2961,-2958 4563,-4919 2464,-2952 5145,-7053 8042,-12307 2086,-3895 4045,-8273 5876,-13130 924,-2368 1743,-4597 2454,-6687l325 -1727 535 -1567c428,-1427 836,-2543 1226,-3343 1024,-1634 2392,-2569 4105,-2801 2447,-333 4133,621 5061,2862l432 1809c92,683 114,1416 61,2197 48,639 35,1316 -35,2034 70,622 82,1284 35,1986 52,691 34,1430 -54,2213l-359 2851 -886 7223 -678 7378 -703 7197 -108 575 -109 575 -3 27c210,437 494,631 851,584 7856,-1070 18347,-28627 20362,-37151 856,-3870 1987,-9595 6837,-10253 3056,-415 2183,1434 5390,1273 4624,-232 10418,-7742 19892,-9029 4037,-548 7111,527 9221,3230 1367,1806 2208,3872 2525,6195 144,1064 194,2173 150,3328 27,659 20,1334 -19,2026 39,648 45,1313 19,1994 126,3124 -492,6614 -1855,10471l-1786 4728 -1762 4910c-908,2549 -1539,4864 -1892,6946 588,1675 1761,2392 3522,2152 1223,-166 2723,-1055 4496,-2666 1457,-1195 2766,-2556 3929,-4086 1813,-2239 3543,-5090 5190,-8552l1970 -4754 1413 -3235 131 -525c1825,-6725 4041,-12882 6645,-18468l850 -1986 1194 -2217c901,-1618 1861,-2807 2878,-3568 806,-483 1638,-784 2493,-900 2079,-282 3663,374 4753,1970 450,562 717,1148 799,1759 62,454 53,938 -25,1454l25 154c80,586 42,1224 -112,1911 52,166 88,332 112,502 62,453 53,938 -25,1455l25 153c149,1100 -113,2383 -786,3845l-876 1800 -901 1617c-1523,3446 -2775,6607 -3755,9481l-268 784 -242 967c-388,800 -708,1654 -958,2560 -681,2334 -1298,4660 -1855,6978 -883,3530 -1453,6627 -1709,9289l11 77c548,4036 2413,5837 5593,5405 2936,-399 5722,-1900 8358,-4501 2090,-2028 3976,-4650 5656,-7870 3076,-5774 5684,-11797 7820,-18067l1419 -4679 1445 -4493 643 -2143 618 -2326c656,-1584 1424,-2810 2302,-3677 879,-867 1868,-1376 2969,-1524 1959,-267 3472,336 4545,1810 450,562 734,1272 850,2127 63,464 61,989 -4,1579l4 30c78,578 57,1255 -65,2031 26,123 47,250 65,380 63,463 61,989 -4,1579l4 31c116,856 13,1928 -309,3219l-511 1749 -351 1544c-1442,5586 -2299,10537 -2571,14853 48,650 113,1280 196,1891 232,1712 660,3024 1281,3936 672,1279 1682,1826 3027,1644 10520,-1430 7253,-13481 12881,-16042 335,-294 746,-474 1236,-541 3056,-415 4802,966 5235,4146 80,589 88,1217 30,1874 64,640 45,1322 -47,2034l17 112c80,592 88,1223 30,1883 740,7633 -9959,21158 -18927,22377 -3301,450 -6256,-207 -8864,-1971 -554,-422 -1135,-1028 -1740,-1819 -712,-650 -1302,-1318 -1768,-2000 -638,-1035 -1264,-1511 -1876,-1428 -367,50 -875,431 -1526,1143 -5624,7393 -9870,15169 -20354,16596zm-223134 31996c-303,-2534 867,-4465 2100,-6525l1035 -2010c3514,-6208 6329,-12071 8444,-17590l1652 -4336 1555 -3846 -750 -1099c-882,-1002 -1392,-1991 -1524,-2970 -76,-563 -76,-1092 2,-1589l-2 -19c-97,-713 -70,-1373 83,-1980 -35,-144 -64,-288 -83,-432 -76,-562 -75,-1090 2,-1586l-2 -23c-317,-2322 691,-4080 3021,-5268 455,-311 912,-623 1368,-933l1234 -543c1629,-843 2650,-2042 3062,-3592 3600,-11079 6046,-24241 7336,-39490l234 -1774c-47,-674 -113,-1322 -198,-1945 -564,-4158 -2126,-6936 -4683,-8332 -1739,-884 -3770,-1169 -6095,-852 -1712,232 -3514,727 -5406,1481 -1539,584 -3115,1358 -4727,2326 -5799,3154 -10968,7283 -15507,12386 -4200,4773 -7258,9718 -9174,14831 303,606 330,1275 144,1963 204,644 132,1344 -149,2052 306,608 332,1280 145,1969 1585,4993 -13477,13390 -13407,2417l52 -491c-36,-349 -54,-720 -52,-1117 31,-304 65,-608 100,-911 -69,-454 -104,-952 -100,-1500l52 -491c-36,-348 -54,-719 -52,-1117 581,-5809 2287,-11585 5119,-17327 2727,-5602 6313,-10824 10763,-15665 5133,-5307 10783,-9562 16949,-12768 4537,-2362 9128,-3858 13776,-4490 8441,-1148 14718,1050 18836,6595 2302,3175 3792,7271 4473,12285 360,2642 522,5540 487,8699 7,653 5,1317 -6,1992l0 20c12,656 13,1324 6,2004l0 3c11,1013 0,2055 -31,3125 -247,2775 -601,6123 -1064,10049l-660 4761 -662 4761c-528,3436 -1099,6566 -1713,9390 -255,1037 -474,1969 -659,2797 145,29 311,31 498,5 734,-100 1628,-408 2678,-925l1209 -725 501 -443 342 -233c5383,-3473 10536,-7723 15456,-12752 5874,-6281 10705,-12418 14501,-18416 2842,-4746 5826,-11194 8954,-19343 2265,-6313 3526,-12051 4758,-18586 768,-2597 2315,-4053 4638,-4369 3303,-449 5203,1162 5703,4831 132,974 170,2044 131,3180 25,653 17,1337 -18,2043 36,633 42,1295 17,1981 241,6399 -2595,15679 -4683,21279 -2309,5921 -5019,11645 -8129,17176 -3760,6241 -7953,12044 -12580,17407 -3781,4251 -8237,8595 -13363,13029l-4370 3584 -646 537c5773,2951 10344,5910 13714,8875 4807,4203 8619,9791 11435,16757 757,1890 1259,3752 1508,5587 142,1039 183,1980 122,2821 46,714 35,1374 -33,1979 68,736 77,1416 33,2043 258,4127 -1346,6426 -4810,6898 -2690,364 -4478,-1322 -5360,-5064 -783,-3008 -2140,-6125 -4075,-9349 -3245,-5538 -8084,-9987 -14521,-13347l-4228 -2229c-1723,-762 -3238,-1366 -4544,-1811l-1985 -852 -1957 -668c-1691,-516 -3146,-693 -4371,-526 -1344,182 -2431,892 -3260,2126 -317,417 -610,1016 -876,1801l-669 1959 -1419 4678 -1811 4543c-3250,8094 -8540,22043 -13653,28764 -1161,1529 -2537,2401 -4128,2617 -1345,184 -2644,-201 -3893,-1152 -1234,-829 -1944,-1916 -2126,-3261 -81,-604 -81,-1174 -15,-1719 -85,-713 -53,-1379 64,-2012 -19,-95 -35,-191 -49,-289 -81,-604 -81,-1175 -13,-1720zm83617 32923c4036,-550 7726,-2732 11069,-6551 2692,-3107 4975,-6469 6850,-10088l1509 -2634 1511 -2634c1112,-1896 2005,-3575 2678,-5037l2553 -5952c940,-2247 1731,-4223 2371,-5928l292 -601 267 -783 106 -366c-611,88 -1422,510 -2430,1265l-1186 909 -500 442 -341 233c-2808,2251 -5811,4903 -9010,7953l-3953 3901 -4321 3952c-3970,3779 -6874,7164 -8709,10153l-927 1434 -925 1434c-706,1216 -1308,2296 -1804,3234 -418,916 -743,1795 -974,2638 833,2437 2791,3446 5873,3027zm79605 -20800c-56,-671 -34,-1360 40,-2041 -85,-646 -89,-1314 -40,-1979 -110,-1320 85,-2709 372,-3973 350,-1529 897,-3034 1514,-4474 172,-404 595,-1279 1056,-2273 -187,-75 -377,-145 -566,-212l-470 -177 -403 -117c-311,-110 -672,-189 -1003,-128 -487,89 -754,632 -900,1035 -1567,5388 -2640,9044 -5584,13954 -2953,4926 -6806,9482 -11878,12293 -1410,826 -3025,1314 -4626,1606 -3068,560 -5891,-17 -8306,-2021 -1951,-1526 -2983,-3678 -3421,-6084 -229,-1252 -299,-2514 -244,-3770 -30,-673 -21,-1346 24,-2017 -46,-666 -53,-1332 -24,-1997 -122,-2662 382,-5330 1220,-7870 1024,-2923 2386,-5829 4254,-8314 1780,-2367 4109,-4842 6909,-5956 533,-223 1086,-391 1654,-495 900,-165 1812,-165 2714,-11 1340,229 2488,878 3467,1811 884,841 1434,1870 1652,3071 126,688 140,1381 68,2067 76,678 50,1358 -54,2027 113,665 123,1333 54,1995 180,1604 -215,3219 -850,4692 -271,630 -589,1311 -978,1878 -2118,3894 -7643,3054 -7706,-1282 -4,-281 22,-556 76,-821 -45,-248 -72,-510 -76,-786 -6,-422 57,-828 176,-1209 -61,-206 -107,-424 -137,-654 -743,668 -1404,1421 -1997,2231 -1736,2370 -3033,4982 -3806,7833 -194,621 -355,1250 -481,1886 630,2270 2369,2803 4752,2368 3391,-620 6425,-3127 8737,-5554 1880,-1970 3536,-4624 4893,-6973 1849,-3199 2955,-6124 3983,-9454 -169,-409 -295,-833 -375,-1268 -134,-736 -160,-1441 -75,-2112 -81,-694 -62,-1357 61,-1989 -120,-706 -143,-1384 -61,-2030 -229,-1962 345,-3688 1795,-5113 653,-706 1447,-1173 2393,-1345 1986,-364 3195,573 3553,2531 116,640 104,1369 58,2044 60,617 28,1280 -19,1883l-21 190 2 10c86,475 496,762 901,947l872 378c1596,540 3201,1190 4676,2049 1290,841 2241,1984 2519,3522 112,614 108,1200 28,1771 106,704 61,1374 -73,2027l18 82c1640,196 3116,1416 3893,2890 303,-683 597,-1370 882,-2062 426,-1589 947,-3158 1527,-4699 1804,-4796 4574,-9261 8893,-12168 1129,-761 2424,-1214 3760,-1457 1500,-275 2954,-87 4278,710 1319,854 2080,2104 2361,3643 133,728 152,1462 82,2190 69,676 46,1355 -50,2027 104,663 112,1330 50,1993 199,1971 -385,3967 -1207,5744 -1033,2234 -2859,4302 -4615,6000 -928,897 -1932,1786 -3002,2512 -571,385 -1181,710 -1801,991l-2274 1160c662,112 1355,66 2010,-54 3144,-574 5901,-2413 8207,-4554 868,-805 1673,-1676 2404,-2597 731,-956 1425,-1951 2110,-2941 1670,-2416 2732,-4665 3598,-7461 826,-2670 1472,-5207 2541,-7804l386 -1020 535 -1113c353,-706 817,-1432 1433,-1939l16 -14 17 -11c413,-274 865,-468 1353,-558 1115,-204 2076,91 2756,996 264,299 448,639 520,1034 82,446 42,904 -66,1348 29,83 50,171 66,260 111,607 -4,1237 -206,1822 98,183 170,378 206,589 82,445 42,903 -66,1347 29,84 50,171 66,261 131,715 -51,1463 -325,2133 -1703,3946 -2919,7671 -3749,11893 -126,645 -258,1363 -369,2108 300,1086 903,1860 2230,1617 1489,-273 2723,-1161 3737,-2250 1045,-1120 1856,-2471 2508,-3852 1357,-2879 2497,-5856 3381,-8899l589 -2317 602 -2213 263 -1045 255 -1173 8 -27c257,-708 612,-1428 1127,-1985 449,-484 995,-819 1647,-937 1054,-193 1977,81 2649,921 304,346 473,766 555,1216 84,465 50,974 -31,1460l31 149c102,558 32,1181 -84,1749l-44 180c55,155 98,317 128,482 84,465 50,974 -31,1460l31 148c102,560 32,1182 -84,1750l-205 845 -137 764c-302,1435 -580,3003 -750,4594 26,190 57,379 91,566 104,563 285,1247 635,1712l14 20 11 21c274,468 689,480 1186,526 4390,398 6158,-12052 6994,-15873 8,-184 29,-357 66,-525 -179,-1414 -72,-2114 996,-3267 448,-484 995,-818 1647,-937 1056,-193 1977,82 2649,921 304,347 474,765 555,1216 86,466 50,977 -31,1463l31 146c103,559 31,1181 -83,1750l-45 181c57,155 97,315 128,480 86,466 50,977 -31,1463l31 146c103,559 31,1181 -83,1749l-206 847 -138 765c-301,1435 -579,3004 -749,4595 27,190 57,378 91,565 103,563 285,1246 635,1711l15 20 12 21c2604,4447 5230,-1833 5838,-4177 383,-1477 628,-3004 804,-4518 292,-2520 394,-5058 454,-7593 15,-615 -14,-3665 312,-4108 1810,-2453 4973,-3626 7872,-2474 2652,1054 6354,2363 6938,5571 106,579 103,1169 25,1753 102,676 60,1367 -72,2042l39 180 682 99c3098,750 4393,3952 4150,7437 50,657 35,1338 -36,2026 72,644 83,1315 36,1997 353,4785 -2532,10846 -7888,11824 -1673,305 -3255,17 -4693,-921 -1366,-944 -2190,-2254 -2487,-3886 -139,-759 -157,-1557 -97,-2349 -57,-670 -34,-1358 40,-2039 -86,-645 -90,-1313 -40,-1978 -111,-1321 84,-2713 371,-3978 348,-1529 896,-3034 1513,-4474 161,-373 544,-1191 970,-2135 -771,-305 -1573,-482 -1855,-275 -897,657 -1423,3348 -1629,4382 -524,2634 -895,5287 -1479,7914 -993,4471 -2858,10678 -8095,11634 -2735,500 -4924,-520 -6579,-2723 -587,-859 -789,-322 -1259,359 -3142,4547 -8471,6923 -12410,1679 -72,-105 -224,-305 -368,-316 -612,-46 -2817,3313 -3218,3839 -1851,2420 -4086,4559 -7198,5127 -3210,586 -5855,-356 -7733,-3050 -577,-766 -1024,-1599 -1352,-2490 -2877,3865 -6465,7007 -10945,8914 -1260,536 -2570,938 -3916,1184 -3961,724 -7635,41 -9946,-3510 -65,-110 -128,-222 -189,-335 -2474,4324 -8480,8945 -13305,5800 -1368,-944 -2190,-2254 -2488,-3887 -139,-760 -157,-1556 -98,-2350zm-135841 25442c-18,-322 -29,-648 -29,-974l45 -979 -8 -495 84 -418c57,-654 150,-1309 259,-1974l401 -1987c582,-2608 1350,-5185 2362,-7646l323 -853 445 -924c296,-597 686,-1207 1206,-1634l17 -13 18 -12c350,-232 735,-397 1149,-473 952,-173 1777,81 2355,851 227,258 387,553 449,894 77,426 27,864 -92,1284 40,104 71,211 92,324 108,592 -35,1209 -258,1769 126,194 216,408 258,642 77,426 27,864 -92,1285 40,103 71,211 92,323 111,607 -42,1240 -273,1811l-331 765 -325 644c-492,1269 -948,2550 -1327,3857l-86 297 -87 430 -18 41c-137,317 -238,647 -318,983 -224,943 -427,1890 -617,2841 -67,340 -137,704 -202,1082 266,690 741,1138 1663,968 1222,-223 2233,-953 3064,-1846 862,-925 1532,-2041 2070,-3179 1126,-2387 2068,-4854 2802,-7374l489 -1924 500 -1836 217 -865 214 -979 10 -26c215,-597 514,-1203 948,-1672 382,-413 850,-697 1407,-799 901,-165 1693,70 2267,787 260,298 405,657 476,1044 80,441 34,927 -51,1382 19,75 36,149 51,225 87,474 28,997 -70,1482l-92 383c76,173 127,357 162,547 80,441 34,926 -51,1382 19,75 36,150 51,225 87,474 28,998 -70,1482l-170 699 -114 634c-214,1020 -415,2121 -557,3246l10 55c83,455 230,1015 514,1391l15 20 11 21c194,331 431,477 816,407 359,-65 681,-206 970,-398l-6 -181c-3,-261 25,-521 80,-775 -49,-261 -76,-538 -80,-833 -5,-392 61,-782 186,-1154 -118,-379 -179,-798 -186,-1258 -3,-261 25,-521 80,-775 -49,-261 -76,-539 -80,-833 -29,-2021 1835,-3946 3862,-3974 3129,-45 4144,2027 3848,4655 85,631 57,1327 -63,2059 124,594 140,1259 62,1963 556,4182 -3734,11276 -8150,12083 -1383,253 -2714,47 -3936,-702 -297,-206 -563,-475 -797,-751 -290,-245 -562,-518 -801,-838 -49,-74 -263,-358 -344,-371 -97,39 -294,264 -348,327l-758 1097 -273 583 -20 29c-221,319 -442,640 -668,967 -1604,2210 -3708,4072 -6468,4577 -2692,492 -4919,-305 -6488,-2556 -796,-1061 -1297,-2265 -1536,-3568 -138,-761 -185,-1552 -188,-2347l29 -635c-18,-322 -29,-647 -29,-974l45 -979 -5 -289c-27,-379 -39,-761 -40,-1144l29 -634zm248534 -59557c-50,-627 -29,-1271 20,-1895l116 -1225 230 -1038 396 -2525 496 -2436 1003 -4781 1014 -4686c335,-1635 702,-3265 1085,-4898l1258 -4905c793,-3090 1598,-6268 2595,-9291l397 -1272 493 -1181c571,-1168 1463,-2025 2793,-2201 1683,-223 2750,515 2908,2228 54,403 23,848 -42,1280 17,105 32,214 42,328 73,544 -7,1163 -125,1728 61,208 102,436 125,683 54,403 23,847 -42,1280 17,105 32,215 42,329 88,665 -51,1442 -207,2095l-484 1908 -1472 4655c-906,2988 -1775,5980 -2618,8972 -326,1580 -709,3143 -1105,4699l-1000 4779c-775,3424 -1476,6863 -2177,10302l-502 2459 -304 1132c-118,431 -295,857 -588,1240l-18 19c555,615 897,1350 1010,2204 66,499 58,986 -22,1457l22 151c84,644 48,1265 -110,1859 48,178 85,363 110,552 66,500 58,988 -22,1459l22 149c156,1185 -102,2295 -758,3294 -765,1164 -1857,1852 -3239,2035 -1014,134 -1958,-137 -2769,-757 -867,-663 -1337,-1577 -1481,-2654 -62,-474 -47,-934 36,-1380 -14,-75 -26,-151 -36,-227 -82,-616 -32,-1209 129,-1776 -57,-205 -100,-417 -129,-635 -62,-474 -47,-934 36,-1380 -14,-75 -26,-152 -36,-228 -167,-1247 212,-2403 944,-3432 581,-759 1295,-1376 2169,-1691 -78,-252 -129,-512 -163,-771 -86,-649 -82,-1329 -40,-1991 -50,-626 -29,-1272 20,-1895l16 -167c-81,-639 -77,-1306 -35,-1957zm-13998 11135c1102,496 2158,-40 2927,-995 -223,-100 -478,-167 -772,-196 -369,-36 -733,1 -1076,115 -286,104 -554,250 -801,426l-211 488 -68 161zm-91543 18103c1062,27 2222,-1196 2938,-2188 -409,7 -912,103 -1522,307 -286,103 -554,249 -802,425l-209 488 -405 968z"/>
  <path class="fil1" d="M253424 94944c-6481,881 -11391,-1316 -14722,-6594 -1068,-1564 -1887,-3257 -2457,-5083 -2828,3734 -5788,6503 -8878,8307 -1962,1139 -4168,1874 -6613,2208 -4281,582 -7791,-498 -10531,-3240 -2012,-1969 -3251,-4665 -3717,-8091 -450,-3302 -163,-6703 854,-10205 770,-2596 1926,-5993 3474,-10189 258,-758 3917,-7891 795,-10530 -6225,-5232 -18848,5638 -19379,6864 -5761,13305 -10754,32568 -12784,38204l-775 2535c-478,1061 -921,1932 -1327,2609 -900,1617 -2146,2535 -3736,2751 -1101,149 -2130,-84 -3086,-702 -1095,-723 -1734,-1757 -1917,-3103 -88,-644 -41,-1355 143,-2132 -786,890 -1568,1701 -2345,2432 -2748,2558 -5203,4958 -8400,6935 -1123,900 -1888,1689 -2294,2367 -422,556 -795,1478 -1118,2768l-325 1726 -143 1701 -835 3476 -860 3294c-1581,6693 -4992,15503 -10232,26431 -5046,10527 -11206,17905 -18479,22133 -2663,1483 -5341,2408 -8030,2774 -1958,266 -3888,280 -5788,39 -4726,-853 -8220,-3180 -10481,-6984 -688,-1401 -1166,-3079 -1432,-5037 -349,-2568 -129,-5525 661,-8872 573,-2195 1583,-4388 3031,-6579l2010 -3076 2402 -2944c4316,-5818 10853,-12251 19613,-19297 2093,-1718 20418,-16026 21304,-17847 709,-1656 1520,-8050 1221,-10256 -99,-733 -394,-1067 -884,-1001 -366,50 -708,284 -1026,701l-450 808 -476 626 -1985 3259c-512,817 -1190,1781 -2035,2893l-2219 2917c-4400,5207 -9107,8152 -14121,8834 -3670,499 -6780,-386 -9331,-2655 -3228,-2675 -5218,-6765 -5965,-12269 -566,-4159 -307,-9114 780,-14868 981,-5615 2244,-10520 3791,-14717 1492,-3690 3352,-7868 5584,-12531 672,-1462 1501,-2695 2486,-3702 1196,-1284 2404,-2009 3628,-2175 2935,-400 4619,991 5052,4171 182,1345 -160,2949 -1028,4811l-1168 2401 -610 1017 -610 1017c-1646,3463 -3248,8166 -4807,14108 -1520,5314 -2469,10240 -2849,14776l-8 1309 -168 1517c-77,1257 -51,2374 83,3352 498,3670 2032,5329 4601,4980 735,-100 1610,-531 2628,-1292l1184 -909 1160 -1091c1440,-1317 2961,-2957 4563,-4919 2464,-2951 5145,-7053 8043,-12306 2085,-3896 4044,-8273 5875,-13131 924,-2368 1743,-4597 2454,-6688l325 -1726 535 -1567c429,-1428 838,-2543 1226,-3343 1024,-1634 2392,-2568 4105,-2801 2446,-333 4132,622 5061,2862l432 1809c116,857 119,1791 7,2802l-359 2852 -886 7221 -678 7379 -703 7198 -108 574 -109 575 -167 1518c-201,1273 -259,2215 -176,2827 183,1345 580,1976 1191,1894 7855,-1069 18346,-28627 20361,-37151 857,-3870 1988,-9595 6839,-10253 3056,-415 2183,1434 5388,1272 4626,-232 10419,-7741 19893,-9029 4037,-548 7111,527 9221,3230 1367,1808 2208,3873 2525,6197 481,3547 -86,7611 -1706,12191l-1786 4728 -1760 4910c-1353,3797 -2091,7074 -2214,9831l-8 1308c366,2692 1650,3886 3851,3587 1222,-166 2722,-1055 4495,-2666 1457,-1194 2766,-2556 3929,-4085 1813,-2239 3543,-5090 5190,-8553l1970 -4753 1412 -3235 131 -525c1826,-6726 4041,-12882 6645,-18468l850 -1986 1194 -2217c901,-1618 1861,-2807 2878,-3568 806,-483 1638,-783 2493,-900 2079,-282 3663,374 4752,1970 450,561 718,1148 800,1759 149,1101 -112,2383 -786,3845l-876 1801 -900 1617c-1525,3447 -2777,6606 -3755,9480l-269 785 -241 967c-389,799 -709,1654 -959,2560 -681,2335 -1298,4660 -1855,6979 -1614,6447 -2181,11446 -1698,14993 548,4036 2414,5838 5593,5405 2936,-399 5721,-1899 8358,-4501 2090,-2028 3976,-4650 5656,-7869 3076,-5774 5684,-11797 7820,-18067l1419 -4678 1444 -4494 643 -2143 618 -2326c656,-1584 1424,-2810 2302,-3677 879,-866 1868,-1375 2969,-1524 1958,-267 3473,336 4545,1811 450,562 733,1271 849,2127 117,856 13,1929 -309,3218l-509 1751 -352 1543c-2367,9166 -3157,16624 -2376,22372 233,1712 660,3024 1283,3936 672,1280 1681,1827 3026,1644 10520,-1430 7253,-13481 12881,-16041 335,-294 746,-475 1235,-541 3058,-415 4804,966 5236,4146 1030,7578 -9820,21418 -18897,22651 -3302,449 -6256,-207 -8864,-1970 -555,-423 -1136,-1029 -1741,-1819 -712,-650 -1301,-1318 -1767,-2001 -639,-1034 -1265,-1511 -1876,-1428 -367,50 -876,431 -1526,1142 -5624,7393 -9871,15170 -20354,16596zm-217101 42150c-1347,184 -2645,-201 -3895,-1152 -1233,-828 -1942,-1916 -2125,-3262 -352,-2590 835,-4547 2087,-6636l1035 -2010c3514,-6208 6329,-12072 8444,-17591l1652 -4336 1678 -4152 243 -967 241 -968c267,-784 368,-1420 300,-1910 -50,-366 -291,-769 -725,-1209l-934 -1367c-882,-1002 -1392,-1990 -1524,-2970 -317,-2322 691,-4080 3021,-5268 455,-311 912,-623 1367,-933l1234 -542c1630,-844 2650,-2042 3062,-3592 3601,-11079 6046,-24242 7336,-39490l275 -2093 42 -2435c13,-1746 -81,-3353 -282,-4820 -564,-4158 -2126,-6937 -4683,-8332 -1739,-885 -3771,-1169 -6095,-853 -1713,233 -3514,727 -5405,1482 -1540,584 -3117,1358 -4729,2325 -5799,3155 -10967,7284 -15506,12386 -4856,5519 -8186,11266 -9987,17241 -217,693 -411,1370 -580,2032 104,1 -2363,-1814 312,5 6427,4373 -12263,16172 -12185,3954 581,-5809 2287,-11585 5119,-17327 2726,-5602 6313,-10824 10762,-15665 5134,-5307 10783,-9563 16950,-12769 4536,-2361 9128,-3857 13776,-4490 8441,-1148 14719,1050 18836,6594 2302,3175 3792,7271 4473,12286 415,3058 568,6463 456,10215 -246,2775 -600,6123 -1063,10048l-660 4762 -662 4760c-528,3436 -1099,6566 -1712,9389 -1042,4253 -1512,6746 -1412,7480 100,733 518,1051 1250,951 734,-100 1628,-407 2678,-925l1209 -725 501 -442 342 -233c5383,-3473 10535,-7723 15456,-12752 5874,-6281 10705,-12418 14501,-18416 2841,-4746 5826,-11194 8954,-19342 2263,-6314 3526,-12051 4759,-18586 768,-2596 2314,-4053 4638,-4369 3302,-449 5203,1162 5702,4830 865,6358 -2287,16776 -4553,22855 -2309,5920 -5019,11645 -8129,17175 -3760,6241 -7953,12044 -12580,17407 -3782,4251 -8237,8594 -13363,13029l-4370 3584 -1345 1117 -1501 1325c-790,606 -1158,1092 -1109,1458 66,490 631,974 1692,1453 6542,3220 11652,6450 15331,9687 4807,4203 8620,9790 11435,16756 756,1891 1259,3753 1508,5588 666,4892 -897,7597 -4689,8113 -2690,365 -4478,-1323 -5360,-5064 -783,-3008 -2141,-6126 -4075,-9350 -3245,-5538 -8085,-9987 -14522,-13347l-4227 -2228c-1723,-762 -3237,-1366 -4543,-1811l-1985 -852 -1960 -668c-1690,-517 -3146,-693 -4369,-527 -1344,183 -2432,892 -3261,2126 -316,416 -609,1015 -876,1800l-668 1960 -1420 4678 -1811 4543c-3250,8093 -8540,22044 -13652,28764 -1162,1529 -2539,2401 -4128,2617zm77583 28397c4037,-550 7726,-2732 11069,-6551 2691,-3107 4974,-6469 6850,-10088l1509 -2634 1511 -2635c1112,-1895 2005,-3574 2678,-5036l2554 -5952c940,-2247 1731,-4223 2371,-5928l292 -601 267 -783 509 -1751c551,-1445 776,-2534 676,-3269 -99,-734 -454,-1060 -1066,-976 -611,83 -1427,505 -2443,1267l-1186 909 -500 442 -341 233c-2809,2251 -5811,4902 -9009,7952l-3954 3901 -4322 3951c-3970,3779 -6873,7164 -8709,10154l-927 1434 -925 1433c-706,1217 -1308,2296 -1804,3235 -1151,2524 -1595,4764 -1327,6721 482,3547 2558,5071 6227,4572z"/>
  <path class="fil2" d="M209403 139500c-2473,4324 -8479,8945 -13305,5801 -1367,-945 -2190,-2254 -2487,-3886 -280,-1531 -69,-3213 275,-4716 348,-1530 896,-3034 1513,-4474 472,-1104 2825,-5746 2655,-6673 -91,-501 -672,-822 -1115,-1014 -332,-165 -693,-299 -1050,-425l-470 -178 -402 -117c-312,-110 -673,-188 -1004,-128 -486,89 -754,631 -901,1034 -1565,5389 -2639,9043 -5583,13954 -2953,4926 -6806,9482 -11879,12294 -1411,825 -3025,1313 -4626,1605 -3068,561 -5891,-17 -8306,-2021 -1951,-1525 -2983,-3678 -3422,-6084 -615,-3366 -88,-6800 977,-10026 1023,-2924 2385,-5830 4253,-8314 1780,-2368 4109,-4843 6909,-5955 533,-224 1086,-392 1654,-496 901,-165 1812,-165 2714,-11 1340,227 2489,877 3468,1810 884,842 1433,1870 1652,3071 322,1754 -85,3540 -782,5153 -271,629 -589,1311 -978,1879 -2118,3893 -7643,3055 -7705,-1281 -30,-2113 1659,-3850 3771,-3880 52,-1 103,-1 153,0 88,-285 146,-601 95,-876 -99,-542 -449,-591 -947,-500 -369,68 -740,206 -1082,361l-554 367 -394 247c-1165,841 -2152,1882 -2999,3039 -1736,2371 -3034,4982 -3807,7833 -413,1331 -680,2698 -778,4089 -68,968 0,1936 175,2890 497,2721 2314,3371 4875,2903 3390,-620 6424,-3128 8736,-5553 1879,-1971 3536,-4625 4893,-6975 2194,-3797 3344,-7207 4553,-11367l191 -945c108,-531 85,-1191 -231,-1695l-436 -857c-217,-475 -375,-972 -469,-1486 -397,-2170 147,-4070 1720,-5616 653,-706 1445,-1172 2392,-1345 1987,-363 3195,573 3553,2531 133,728 98,1571 39,2320l-101 905c12,295 29,613 81,902 87,475 497,762 901,947l872 378c1596,539 3201,1188 4676,2049 1290,841 2240,1984 2520,3521 252,1375 -83,2605 -549,3852 1843,-32 3556,1289 4414,2918 303,-683 597,-1370 882,-2061 426,-1590 946,-3158 1527,-4699 1804,-4796 4574,-9261 8893,-12168 1130,-761 2425,-1213 3760,-1457 1500,-274 2954,-86 4278,711 1319,854 2080,2104 2361,3643 395,2157 -221,4375 -1124,6326 -1033,2235 -2859,4302 -4613,6000 -929,897 -1933,1787 -3003,2512 -571,386 -1182,711 -1800,990l-2549 1301 -832 330c-449,248 -974,576 -1292,956 -281,406 -235,1002 -152,1462 194,1058 656,1987 1644,2467 909,411 1953,393 2915,218 3144,-575 5902,-2414 8207,-4554 867,-806 1672,-1676 2404,-2597 731,-956 1425,-1951 2110,-2940 1670,-2418 2733,-4666 3598,-7461 827,-2670 1472,-5208 2543,-7804l385 -1020 535 -1113c351,-706 815,-1433 1432,-1939l16 -14 18 -12c412,-274 864,-468 1352,-557 1115,-204 2076,91 2756,996 264,300 449,641 521,1035 131,715 -52,1463 -325,2133 -1703,3947 -2919,7671 -3749,11893 -419,2126 -887,5029 -494,7183 249,1361 811,2452 2355,2170 1489,-273 2723,-1161 3738,-2250 1045,-1120 1855,-2471 2507,-3851 1357,-2878 2495,-5855 3380,-8898l589 -2317 601 -2213 263 -1045 254 -1174 10 -26c256,-708 612,-1428 1128,-1985 448,-484 993,-818 1646,-937 1055,-193 1977,81 2649,921 304,347 473,766 555,1216 102,559 32,1181 -84,1750l-206 845 -137 766c-702,3337 -1278,7397 -659,10787 104,564 285,1247 635,1712l14 19 12 21c274,468 689,482 1186,527 4545,412 6280,-12955 7079,-16248 -203,-1515 -127,-2223 977,-3417 448,-484 995,-818 1646,-937 1056,-193 1977,81 2649,921 304,347 473,765 555,1215 103,559 31,1181 -84,1750l-206 847 -138 765c-701,3337 -1277,7398 -657,10787 102,563 284,1246 635,1711l14 19 12 21c2604,4446 5231,-1834 5838,-4177 383,-1476 628,-3004 804,-4518 292,-2520 394,-5058 455,-7593 14,-615 -14,-3665 311,-4108 1810,-2453 4973,-3626 7872,-2474 2654,1054 6354,2362 6939,5571 227,1243 -47,2538 -488,3711l-69 173c125,11 249,33 372,66l859 124c7046,1706 4773,16101 -3738,17655 -1674,305 -3256,17 -4693,-920 -1366,-944 -2190,-2254 -2487,-3887 -279,-1530 -68,-3213 274,-4715 348,-1530 896,-3035 1513,-4475 464,-1079 2793,-5897 2655,-6670 -163,-584 -2958,-1796 -3540,-1368 -897,658 -1423,3348 -1629,4383 -524,2634 -896,5287 -1479,7914 -993,4471 -2858,10676 -8095,11634 -2735,500 -4924,-520 -6579,-2724 -587,-859 -789,-322 -1259,359 -3142,4548 -8471,6923 -12410,1680 -72,-106 -224,-306 -367,-316 -613,-47 -2815,3313 -3218,3839 -1852,2420 -4087,4558 -7199,5126 -3210,587 -5856,-356 -7733,-3049 -576,-767 -1024,-1599 -1352,-2490 -2878,3863 -6466,7006 -10945,8914 -1259,536 -2569,938 -3915,1184 -3961,723 -7636,41 -9946,-3510 -65,-110 -128,-222 -189,-335zm-133869 31759c-289,-246 -561,-518 -800,-838 -50,-73 -264,-358 -344,-370 -97,38 -294,262 -348,327l-757 1097 -275 584 -19 29c-222,319 -442,638 -668,966 -1604,2210 -3708,4072 -6468,4576 -2692,492 -4918,-305 -6488,-2556 -796,-1060 -1297,-2264 -1536,-3568 -139,-761 -184,-1552 -189,-2347l45 -979 -8 -495 85 -418c57,-654 149,-1309 257,-1974l402 -1987c583,-2608 1351,-5185 2363,-7646l323 -852 445 -924c297,-596 687,-1206 1207,-1633l17 -14 18 -11c350,-233 735,-398 1149,-473 951,-173 1777,81 2355,851 227,258 387,552 449,894 110,607 -42,1240 -275,1811l-330 766 -324 644c-493,1269 -949,2550 -1327,3858l-87 297 -87 430 -18 40c-137,317 -238,648 -317,983 -224,943 -427,1890 -618,2841 -351,1761 -735,4150 -408,5935 199,1088 633,1970 1870,1744 1222,-223 2233,-954 3063,-1846 862,-924 1532,-2041 2070,-3179 1126,-2386 2068,-4854 2802,-7373l489 -1924 499 -1836 218 -865 214 -979 8 -26c216,-597 515,-1203 950,-1672 382,-413 851,-697 1406,-799 903,-165 1694,70 2267,788 261,297 406,657 477,1043 87,474 28,997 -70,1481l-170 700 -114 635c-580,2762 -1059,6125 -547,8928 83,456 230,1015 514,1391l14 19 12 21c195,330 432,477 816,407 1420,-259 2255,-1683 2809,-2932 -1215,-713 -1824,-1775 -1845,-3276 -29,-2019 1835,-3945 3862,-3974 8108,-115 2029,13975 -4303,15132 -1382,253 -2714,47 -3936,-701 -297,-206 -563,-476 -797,-751zm233396 -57681c-841,111 -1558,-158 -2034,-859 -386,-506 -570,-1135 -652,-1759 -98,-743 -79,-1527 -20,-2278l115 -1225 230 -1038 396 -2524 496 -2436 1003 -4782 1014 -4686c336,-1635 703,-3265 1086,-4899l1259 -4904c793,-3090 1598,-6269 2595,-9290l396 -1273 494 -1180c571,-1168 1463,-2025 2793,-2201 1684,-223 2750,514 2908,2228 88,665 -51,1441 -207,2095l-484 1908 -1472 4655c-906,2988 -1775,5981 -2618,8972 -326,1580 -709,3143 -1104,4699l-1002 4780c-774,3423 -1475,6862 -2176,10301l-502 2458 -304 1134c-116,431 -295,857 -588,1240 -432,482 -977,779 -1620,864zm-1385 12316c-1014,134 -1958,-137 -2769,-757 -867,-664 -1337,-1578 -1481,-2654 -166,-1247 212,-2403 943,-3432 748,-979 1718,-1720 2964,-1886 1046,-139 2019,103 2872,756 825,690 1325,1575 1466,2642 156,1184 -102,2295 -758,3294 -765,1165 -1857,1852 -3239,2035zm-15059 -10459l-210 489 -832 1991c-229,533 -422,1083 -562,1647 2,234 46,462 133,681l10 23 5 24c137,520 389,1022 917,1287 3436,2053 6593,-6275 2418,-6682 -371,-36 -735,1 -1078,116 -286,103 -553,249 -802,425zm-70913 6294c103,-153 196,-316 268,-486l23 -52 34 -43c359,-450 692,-924 983,-1421 331,-568 1170,-2070 1044,-2757 -19,-107 -55,-262 -168,-310l-175 -25 -288 53c-1079,198 -2006,922 -2746,1708l-1299 1325c-374,471 -733,953 -1074,1447 -714,1034 -1313,2153 -1824,3301l-16 35 -129 187 -44 153 -264 611c-104,261 -263,718 -211,1004 5,31 23,111 52,113 571,-104 1141,-406 1613,-711l790 -594 719 -592c904,-717 1695,-1646 2369,-2560l184 -266 159 -120zm-20294 11003l-210 488 -832 1991c-194,452 -364,992 -527,1459 -282,808 -607,2382 300,2948 1522,948 3543,-1753 4125,-2820 1327,-2437 1990,-5846 -2053,-4492 -286,103 -554,249 -802,426z"/>
 </g>
</svg>
