<svg xmlns="http://www.w3.org/2000/svg" xmlns:xlink="http://www.w3.org/1999/xlink" version="1.1" style="enable-background:new 0 0 480 480;" xml:space="preserve" width="480" height="480"><rect id="backgroundrect" width="100%" height="100%" x="0" y="0" fill="none" stroke="none"/>




















<g class="currentLayer" style=""><title>Layer 1</title><g id="svg_1" class="" fill-opacity="1" fill="#f9c148">
	<g id="svg_2" fill="#f9c148">
		<path d="M454.797,293.854c-6.724-29.971-36.471-48.816-66.442-42.092c-1.521,0.341-3.027,0.746-4.513,1.214V240    c0-4.418-3.582-8-8-8h-320c-4.418,0-8,3.582-8,8v24c0.106,59.512,27.736,115.628,74.84,152h-90.84c-4.418,0-8,3.582-8,8    c0.04,30.911,25.089,55.96,56,56h272c30.911-0.04,55.96-25.089,56-56c0-4.418-3.582-8-8-8h-90.84    c14.973-11.6,28.15-25.349,39.104-40.8l64.6-14.904C442.676,353.572,461.522,323.825,454.797,293.854z M379.69,303.384v-0.024    l18.32-3.664c4.433-0.946,8.794,1.882,9.74,6.315c0.908,4.255-1.663,8.48-5.86,9.629l-27.656,7.904    C376.42,316.929,378.241,310.199,379.69,303.384z M391.042,432c-3.825,18.613-20.198,31.979-39.2,32h-272    c-19.002-0.021-35.375-13.387-39.2-32H391.042z M280.522,416h-129.36c-53.992-31.606-87.215-89.437-87.32-152v-16h304v16    C367.736,326.563,334.514,384.394,280.522,416z M432.352,329.26c-5.619,7.794-13.877,13.282-23.238,15.444L360.138,356    c2.459-4.491,4.736-9.072,6.832-13.744l39.32-11.24c12.862-3.649,20.33-17.035,16.681-29.897    c-3.453-12.168-15.691-19.628-28.089-17.119l-12.456,2.488c0.664-5.512,1.048-11.08,1.216-16.688l4-1.336    c12.093-4.095,25.422-2.054,35.736,5.472v-0.024C441.14,286.718,445.158,311.498,432.352,329.26z" id="svg_3" fill="#f9c148"/>
	</g>
</g><g id="svg_4" class="" fill-opacity="1" fill="#f9c148">
	<g id="svg_5" fill="#f9c148">
		<path d="M263.842,48c-13.255,0-24-10.745-24-24V0h-16v24c0.026,22.08,17.92,39.974,40,40c13.255,0,24,10.745,24,24    s-10.745,24-24,24h-88c-57.41,0.066-103.934,46.59-104,104h16c0.057-48.577,39.423-87.943,88-88h88c22.091,0,40-17.909,40-40    S285.933,48,263.842,48z" id="svg_6" fill="#f9c148"/>
	</g>
</g><g id="svg_7" class="" fill-opacity="1" fill="#f9c148">
	<g id="svg_8" fill="#f9c148">
		<path d="M319.842,152h36c33.137,0,60-26.863,60-60s-26.863-60-60-60h-4c-13.255,0-24-10.745-24-24V0h-16v8    c0,22.091,17.909,40,40,40h4c24.301,0,44,19.699,44,44s-19.699,44-44,44h-36c-15.464,0-28,12.536-28,28s12.536,28,28,28    c13.255,0,24,10.745,24,24h16c-0.026-22.08-17.92-39.974-40-40c-6.627,0-12-5.373-12-12C307.842,157.373,313.214,152,319.842,152z    " id="svg_9" fill="#f9c148"/>
	</g>
</g><g id="svg_10" class="" fill-opacity="1" fill="#f9c148">
	<g id="svg_11" fill="#f9c148">
		<path d="M99.698,294.248l-15.608,3.504c4.664,20.8,15.2,49.6,38.752,68.496l10-12.496    C112.89,337.792,103.842,312.584,99.698,294.248z" id="svg_12" fill="#f9c148"/>
	</g>
</g><g id="svg_13" class="" fill-opacity="1" fill="#f9c148">
	<g id="svg_14" fill="#f9c148">
		<path d="M95.842,264h-16c0.105,5.692,0.54,11.374,1.304,17.016l15.872-2.032C96.345,274.015,95.952,269.013,95.842,264z" id="svg_15" fill="#f9c148"/>
	</g>
</g><g id="svg_16">
</g><g id="svg_17">
</g><g id="svg_18">
</g><g id="svg_19">
</g><g id="svg_20">
</g><g id="svg_21">
</g><g id="svg_22">
</g><g id="svg_23">
</g><g id="svg_24">
</g><g id="svg_25">
</g><g id="svg_26">
</g><g id="svg_27">
</g><g id="svg_28">
</g><g id="svg_29">
</g><g id="svg_30">
</g></g></svg>