<svg xmlns="http://www.w3.org/2000/svg" enable-background="new 0 0 512 512" height="512" width="512"><rect id="backgroundrect" width="100%" height="100%" x="0" y="0" fill="none" stroke="none"/><g class="currentLayer" style=""><title>Layer 1</title><g id="svg_1" class="selected" fill-opacity="1" fill="#c996db"><path d="m451.404 9.305c-9.055-9.054-22.071-11.739-33.967-7.004l-20.362 8.102c-14.308 5.694-27.085 14.102-37.976 24.992l-49.182 49.182c1.878-12.958-1.991-26.147-10.456-36.024l14.359-9.388c3.703-2.422 5.767-6.505 5.521-10.922-.245-4.417-2.748-8.247-6.698-10.244l-27.882-14.097c-3.948-1.997-8.517-1.741-12.22.68s-5.767 6.504-5.522 10.921l.965 17.38c-17.51-1.079-34.838 8.122-43.243 24.745l-44.558 88.127c-3.003-16.15-12.602-30.531-26.708-39.468-1.318-.836-2.105-2.211-2.105-3.679v-60.09c2.666-2.736 4.317-6.466 4.317-10.579v-16.668c0-8.368-6.808-15.176-15.176-15.176h-37.779c-8.368 0-15.176 6.808-15.176 15.176v16.667c0 4.113 1.65 7.843 4.316 10.579v60.091c0 1.469-.786 2.845-2.104 3.679-15.059 9.542-24.98 25.286-27.221 42.766-6.471 1.734-11.257 7.633-11.257 14.644v212.085c0 4.056 3.288 7.343 7.343 7.343s7.343-3.287 7.343-7.343v-212.085c0-.27.219-.49.49-.49h25.692v45.601c0 34.818 28.326 63.144 63.144 63.144h38.095c34.818 0 63.144-28.326 63.144-63.144v-45.601h25.202v334.106h-215.277c-.27 0-.49-.22-.49-.49v-87.939c0-4.056-3.288-7.343-7.343-7.343s-7.343 3.287-7.343 7.343v87.939c0 8.368 6.808 15.176 15.176 15.176h227.257c3.456 0 6.793-1.029 9.647-2.974l29.48-20.085 29.481 20.085c2.856 1.946 6.191 2.974 9.647 2.974h4.957c5.669 0 10.281-4.612 10.281-10.281v-338.021c0-6.477-4.085-12.003-9.809-14.177l47.909-47.909c10.89-10.89 19.298-23.667 24.992-37.977l8.102-20.361c4.733-11.898 2.049-24.913-7.006-33.968zm-95.303 81.189c-3.717 3.714-14.283 2.083-25.817-5.513l20.304-20.304c7.597 11.534 9.229 22.101 5.513 25.817zm-59.634 58.027h-23.713c-1.234-.74-2.481-1.474-3.71-2.3l20.29-20.29c6.148 9.298 8.236 17.684 7.133 22.59zm-101.225 0 13.359-26.422 6.149 3.109c1.301.657 2.329 1.67 2.895 2.851 3.128 6.527 8.199 11.705 14.666 14.974 4.923 2.489 10.258 3.664 15.66 3.49l-1.997 1.997h-50.732zm-59.024 14.686h76.263v45.601c0 10.523-8.561 19.085-19.084 19.085h-38.095c-10.523 0-19.084-8.561-19.084-19.085zm145.7-144.286 20.315 10.271-14.628 9.564c-1.512-.868-3.113-1.655-4.716-2.332zm-44.07 45.333c7.608-15.046 26.04-21.096 41.085-13.49 7.289 3.685 12.706 9.988 15.255 17.748 2.548 7.76 1.922 16.048-1.764 23.337l-10.454 20.677-20.146 20.146c-3.689-1.443-7.699-1.852-11.499-1.132-3.899.737-7.837.183-11.387-1.612s-6.333-4.634-8.048-8.215c-1.959-4.087-5.337-7.499-9.512-9.61l-6.149-3.109 8.944-17.689 6.149 3.109c4.176 2.112 8.927 2.808 13.38 1.962 3.898-.739 7.836-.184 11.386 1.612 1.792.905 3.401 2.088 4.782 3.515 6.532 6.945 17.277-3.472 10.551-10.216-2.521-2.605-5.451-4.76-8.706-6.406-6.467-3.27-13.643-4.284-20.755-2.933-1.288.246-2.712.018-4.012-.641l-6.149-3.109zm-131.289-17.14h30.126v29.417h-30.126zm-4.316-31.843c0-.27.219-.49.49-.49h37.779c.27 0 .49.22.49.49v16.667c0 .27-.219.49-.49.49h-37.779c-.27 0-.49-.22-.49-.49zm-4.613 103.42c5.592-3.544 8.93-9.556 8.93-16.084v-11.39h30.126v11.39c0 6.529 3.338 12.542 8.93 16.084 10.66 6.755 17.907 17.627 20.152 29.829h-88.29c2.244-12.201 9.492-23.074 20.152-29.829zm144.224 90.117c0 26.72-21.738 48.458-48.457 48.458h-38.095c-26.72 0-48.457-21.738-48.457-48.458v-45.601h14.687v45.601c0 18.622 15.15 33.771 33.771 33.771h38.095c18.621 0 33.771-15.149 33.771-33.771v-45.601h14.687v45.601zm130.674 288.505h-.551c-.494 0-.97-.147-1.378-.425 0 0-30.188-20.548-30.405-20.68v-216.327c0-4.056-3.288-7.343-7.343-7.343-4.056 0-7.343 3.287-7.343 7.343v216.328c-.218.132-29.077 19.775-29.077 19.775v-332.777h29.077v63.808c0 4.056 3.288 7.343 7.343 7.343 4.056 0 7.343-3.287 7.343-7.343v-63.808h31.845c.27 0 .49.22.49.49v333.616zm72.234-459.469-8.102 20.361c-4.951 12.441-12.262 23.552-21.731 33.02l-57.296 57.296h-46.344c.908-9.711-3.11-21.593-11.388-33.157l19.823-19.823c15.752 10.655 33.069 17.176 46.761 5.338 9.989-9.989 7.652-28.638-5.333-46.766l8.332-8.332c9.469-9.47 20.579-16.781 33.02-21.731l20.362-8.102c6.455-2.569 13.239-1.169 18.153 3.742 4.912 4.913 6.312 11.699 3.743 18.154z" id="svg_2" fill="#c996db"/><path d="m256.409 380.161c0-28.669-36.045-51.128-82.06-51.128s-82.06 22.458-82.06 51.128c0 28.669 36.045 51.128 82.06 51.128s82.06-22.459 82.06-51.128zm-149.433 0c0-19.753 30.853-36.441 67.374-36.441 36.52 0 67.373 16.688 67.373 36.441s-30.853 36.441-67.373 36.441c-36.521 0-67.374-16.688-67.374-36.441z" id="svg_3" fill="#c996db"/><path d="m141.002 374.424h32.858c4.056 0 7.343-3.287 7.343-7.343s-3.288-7.343-7.343-7.343h-32.858c-4.056 0-7.343 3.287-7.343 7.343 0 4.055 3.287 7.343 7.343 7.343z" id="svg_4" fill="#c996db"/><path d="m214.061 395.199c0-4.056-3.288-7.343-7.343-7.343h-65.716c-4.056 0-7.343 3.287-7.343 7.343s3.288 7.343 7.343 7.343h65.716c4.056 0 7.343-3.287 7.343-7.343z" id="svg_5" fill="#c996db"/></g></g></svg>